{
  "source": "C:\\Users\\Peter\\Desktop\\stuff\\MIUN\\quantitative_research\\video_compression\\videos\\BVI-HD\\BVI-HD_CDVL_videos\\ORIG\\TreeGrassFamily_1920x1080_30fps.mp4",
  "output": "C:\\Users\\Peter\\Desktop\\stuff\\MIUN\\quantitative_research\\video_compression\\compressed_videos\\BVI-HD\\hevc\\2.5\\TreeGrassFamily_1920x1080_30fps_hevc.mp4",
  "codec": "hevc",
  "ok": "Input #0, mov,mp4,m4a,3gp,3g2,mj2, from 'C:\\Users\\Peter\\Desktop\\stuff\\MIUN\\quantitative_research\\video_compression\\videos\\BVI-HD\\BVI-HD_CDVL_videos\\ORIG\\TreeGrassFamily_1920x1080_30fps.mp4':\n  Metadata:\n    major_brand     : isom\n    minor_version   : 512\n    compatible_brands: isomiso2avc1mp41\n    encoder         : Lavf54.28.101\n  Duration: 00:00:05.00, start: 0.000000, bitrate: 331787 kb/s\n  Stream #0:0[0x1](und): Video: h264 (High 4:4:4 Predictive) (avc1 / 0x31637661), yuv420p(progressive), 1920x1080, 331784 kb/s, 30 fps, 30 tbr, 30 tbn (default)\n    Metadata:\n      handler_name    : VideoHandler\n      vendor_id       : [0][0][0][0]\n[out#0/mp4 @ 0000029622deab00] Codec AVOption b:a (set bitrate (in bits/s)) has not been used for any stream. The most likely reason is either wrong type (e.g. a video option with no video streams) or that it is a private option of some decoder which was not actually used for any stream.\nStream mapping:\n  Stream #0:0 -> #0:0 (h264 (native) -> hevc (libx265))\nPress [q] to stop, [?] for help\n[libx265 @ 00000296239ff040] Unknown option: \"aq-mode.\nx265 [info]: HEVC encoder version 4.1+190-8f11c33ac\nx265 [info]: build info [Windows][GCC 15.1.0][64 bit] 10bit\nx265 [info]: using cpu capabilities: MMX2 SSE2Fast LZCNT SSSE3 SSE4.2 AVX FMA3 BMI2 AVX2\nx265 [info]: Main 10 profile, Level-4 (Main tier)\nx265 [info]: Thread pool created using 12 threads\nx265 [info]: Slices                              : 1\nx265 [info]: frame threads / pool features       : 3 / wpp(17 rows)\nx265 [info]: Coding QT: max CU size, min CU size : 64 / 8\nx265 [info]: Residual QT: max TU size, max depth : 32 / 1 inter / 1 intra\nx265 [info]: ME / range / subpel / merge         : star / 57 / 3 / 3\nx265 [info]: Keyframe min / max / scenecut / bias  : 25 / 250 / 40 / 5.00 \nx265 [info]: Lookahead / bframes / badapt        : 25 / 4 / 2\nx265 [info]: b-pyramid / weightp / weightb       : 1 / 1 / 0\nx265 [info]: References / ref-limit  cu / depth  : 4 / on / on\nx265 [info]: AQ: mode / str / qg-size / cu-tree  : 2 / 1.0 / 32 / 1\nx265 [info]: Rate Control / qCompress            : ABR-2500 kbps / 0.60\nx265 [info]: VBV/HRD buffer / max-rate / init    : 2500 / 2500 / 0.750\nx265 [info]: tools: rect limit-modes rd=4 psy-rd=2.00 rdoq=2 psy-rdoq=1.00\nx265 [info]: tools: rskip mode=1 signhide tmvp strong-intra-smoothing lslices=4\nx265 [info]: tools: deblock sao dhdr10-info\nOutput #0, mp4, to 'C:\\Users\\Peter\\Desktop\\stuff\\MIUN\\quantitative_research\\video_compression\\compressed_videos\\BVI-HD\\hevc\\2.5\\TreeGrassFamily_1920x1080_30fps_hevc.mp4':\n  Metadata:\n    major_brand     : isom\n    minor_version   : 512\n    compatible_brands: isomiso2avc1mp41\n    encoder         : Lavf62.3.100\n  Stream #0:0(und): Video: hevc (hev1 / 0x31766568), yuv420p10le(tv, progressive), 1920x1080, q=2-31, 2500 kb/s, 30 fps, 15360 tbn (default)\n    Metadata:\n      encoder         : Lavc62.11.100 libx265\n      handler_name    : VideoHandler\n      vendor_id       : [0][0][0][0]\n    Side data:\n      cpb: bitrate max/min/avg: 2500000/0/2500000 buffer size: 2500000 vbv_delay: N/A\nframe=    0 fps=0.0 q=0.0 size=       0KiB time=N/A bitrate=N/A speed=N/A elapsed=0:00:01.07    \nframe=    0 fps=0.0 q=0.0 size=       0KiB time=N/A bitrate=N/A speed=N/A elapsed=0:00:01.67    \nframe=    0 fps=0.0 q=0.0 size=       0KiB time=N/A bitrate=N/A speed=N/A elapsed=0:00:02.19    \nframe=    0 fps=0.0 q=0.0 size=       0KiB time=N/A bitrate=N/A speed=N/A elapsed=0:00:02.70    \nframe=    0 fps=0.0 q=0.0 size=       0KiB time=N/A bitrate=N/A speed=N/A elapsed=0:00:03.22    \nframe=    0 fps=0.0 q=0.0 size=       0KiB time=N/A bitrate=N/A speed=N/A elapsed=0:00:03.74    \nframe=    0 fps=0.0 q=0.0 size=       0KiB time=N/A bitrate=N/A speed=N/A elapsed=0:00:04.27    \nframe=    0 fps=0.0 q=0.0 size=       0KiB time=N/A bitrate=N/A speed=N/A elapsed=0:00:04.79    \nframe=    0 fps=0.0 q=0.0 size=       0KiB time=N/A bitrate=N/A speed=N/A elapsed=0:00:05.31    \nframe=    0 fps=0.0 q=0.0 size=       0KiB time=N/A bitrate=N/A speed=N/A elapsed=0:00:05.83    \nframe=    0 fps=0.0 q=0.0 size=       0KiB time=N/A bitrate=N/A speed=N/A elapsed=0:00:06.35    \nframe=    0 fps=0.0 q=0.0 size=       0KiB time=N/A bitrate=N/A speed=N/A elapsed=0:00:06.86    \nframe=    0 fps=0.0 q=0.0 size=       0KiB time=N/A bitrate=N/A speed=N/A elapsed=0:00:07.38    \nframe=    1 fps=0.1 q=39.3 size=       0KiB time=-00:00:00.03 bitrate=N/A speed=N/A elapsed=0:00:07.91    \nframe=    1 fps=0.1 q=39.3 size=       0KiB time=-00:00:00.03 bitrate=N/A speed=N/A elapsed=0:00:08.44    \nframe=    4 fps=0.4 q=50.0 size=       0KiB time=00:00:00.06 bitrate=   5.3kbits/s speed=0.00743x elapsed=0:00:08.96    \nframe=    4 fps=0.4 q=50.0 size=       0KiB time=00:00:00.06 bitrate=   5.3kbits/s speed=0.00703x elapsed=0:00:09.48    \nframe=    5 fps=0.5 q=49.7 size=       0KiB time=00:00:00.10 bitrate=   3.5kbits/s speed=0.01x elapsed=0:00:09.99    \nframe=    5 fps=0.5 q=49.7 size=       0KiB time=00:00:00.10 bitrate=   3.5kbits/s speed=0.00948x elapsed=0:00:10.55    \nframe=    5 fps=0.4 q=49.7 size=       0KiB time=00:00:00.10 bitrate=   3.5kbits/s speed=0.00897x elapsed=0:00:11.14    \nframe=    6 fps=0.5 q=48.0 size=       0KiB time=00:00:00.13 bitrate=   2.6kbits/s speed=0.0114x elapsed=0:00:11.65    \nframe=    6 fps=0.5 q=48.0 size=       0KiB time=00:00:00.13 bitrate=   2.6kbits/s speed=0.011x elapsed=0:00:12.16    \nframe=    6 fps=0.5 q=48.0 size=       0KiB time=00:00:00.13 bitrate=   2.6kbits/s speed=0.0105x elapsed=0:00:12.70    \nframe=    6 fps=0.5 q=48.0 size=       0KiB time=00:00:00.13 bitrate=   2.6kbits/s speed=0.0101x elapsed=0:00:13.22    \nframe=    7 fps=0.5 q=40.3 size=       0KiB time=00:00:00.16 bitrate=   2.1kbits/s speed=0.0121x elapsed=0:00:13.76    \nframe=    8 fps=0.6 q=44.7 size=       0KiB time=00:00:00.20 bitrate=   1.8kbits/s speed=0.014x elapsed=0:00:14.29    \nframe=    8 fps=0.5 q=44.7 size=       0KiB time=00:00:00.20 bitrate=   1.8kbits/s speed=0.0135x elapsed=0:00:14.84    \nframe=    8 fps=0.5 q=44.7 size=       0KiB time=00:00:00.20 bitrate=   1.8kbits/s speed=0.013x elapsed=0:00:15.37    \nframe=    9 fps=0.6 q=45.2 size=       0KiB time=00:00:00.23 bitrate=   1.5kbits/s speed=0.0147x elapsed=0:00:15.89    \nframe=    9 fps=0.5 q=45.2 size=       0KiB time=00:00:00.23 bitrate=   1.5kbits/s speed=0.0142x elapsed=0:00:16.43    \nframe=    9 fps=0.5 q=45.2 size=       0KiB time=00:00:00.23 bitrate=   1.5kbits/s speed=0.0138x elapsed=0:00:16.96    \nframe=    9 fps=0.5 q=45.2 size=       0KiB time=00:00:00.23 bitrate=   1.5kbits/s speed=0.0133x elapsed=0:00:17.49    \nframe=    9 fps=0.5 q=45.2 size=       0KiB time=00:00:00.23 bitrate=   1.5kbits/s speed=0.0129x elapsed=0:00:18.03    \nframe=   10 fps=0.5 q=45.8 size=       0KiB time=00:00:00.26 bitrate=   1.3kbits/s speed=0.0144x elapsed=0:00:18.57    \nframe=   10 fps=0.5 q=45.8 size=       0KiB time=00:00:00.26 bitrate=   1.3kbits/s speed=0.014x elapsed=0:00:19.08    \nframe=   11 fps=0.6 q=38.9 size=       0KiB time=00:00:00.30 bitrate=   1.2kbits/s speed=0.0153x elapsed=0:00:19.59    \nframe=   12 fps=0.6 q=43.1 size=       0KiB time=00:00:00.33 bitrate=   1.1kbits/s speed=0.0165x elapsed=0:00:20.14    \nframe=   12 fps=0.6 q=43.1 size=       0KiB time=00:00:00.33 bitrate=   1.1kbits/s speed=0.0161x elapsed=0:00:20.67    \nframe=   12 fps=0.6 q=43.1 size=       0KiB time=00:00:00.33 bitrate=   1.1kbits/s speed=0.0157x elapsed=0:00:21.19    \nframe=   13 fps=0.6 q=46.0 size=       0KiB time=00:00:00.36 bitrate=   1.0kbits/s speed=0.0169x elapsed=0:00:21.73    \nframe=   13 fps=0.6 q=46.0 size=       0KiB time=00:00:00.36 bitrate=   1.0kbits/s speed=0.0164x elapsed=0:00:22.30    \nframe=   13 fps=0.6 q=46.0 size=       0KiB time=00:00:00.36 bitrate=   1.0kbits/s speed=0.0161x elapsed=0:00:22.83    \nframe=   13 fps=0.6 q=46.0 size=       0KiB time=00:00:00.36 bitrate=   1.0kbits/s speed=0.0157x elapsed=0:00:23.37    \nframe=   13 fps=0.5 q=46.0 size=       0KiB time=00:00:00.36 bitrate=   1.0kbits/s speed=0.0153x elapsed=0:00:23.90    \nframe=   13 fps=0.5 q=46.0 size=       0KiB time=00:00:00.36 bitrate=   1.0kbits/s speed=0.015x elapsed=0:00:24.44    \nframe=   14 fps=0.6 q=45.7 size=       0KiB time=00:00:00.40 bitrate=   0.9kbits/s speed=0.016x elapsed=0:00:24.97    \nframe=   14 fps=0.5 q=45.7 size=       0KiB time=00:00:00.40 bitrate=   0.9kbits/s speed=0.0157x elapsed=0:00:25.50    \nframe=   14 fps=0.5 q=45.7 size=       0KiB time=00:00:00.40 bitrate=   0.9kbits/s speed=0.0154x elapsed=0:00:26.02    \nframe=   14 fps=0.5 q=45.7 size=       0KiB time=00:00:00.40 bitrate=   0.9kbits/s speed=0.0151x elapsed=0:00:26.53    \nframe=   15 fps=0.6 q=39.4 size=       0KiB time=00:00:00.43 bitrate=   0.8kbits/s speed=0.016x elapsed=0:00:27.06    \nframe=   15 fps=0.5 q=39.4 size=       0KiB time=00:00:00.43 bitrate=   0.8kbits/s speed=0.0157x elapsed=0:00:27.58    \nframe=   16 fps=0.6 q=42.7 size=       0KiB time=00:00:00.46 bitrate=   0.8kbits/s speed=0.0166x elapsed=0:00:28.10    \nframe=   16 fps=0.6 q=42.7 size=       0KiB time=00:00:00.46 bitrate=   0.8kbits/s speed=0.0163x elapsed=0:00:28.64    \nframe=   16 fps=0.5 q=42.7 size=       0KiB time=00:00:00.46 bitrate=   0.8kbits/s speed=0.016x elapsed=0:00:29.16    \nframe=   17 fps=0.6 q=45.2 size=       0KiB time=00:00:00.50 bitrate=   0.7kbits/s speed=0.0168x elapsed=0:00:29.70    \nframe=   17 fps=0.6 q=45.2 size=       0KiB time=00:00:00.50 bitrate=   0.7kbits/s speed=0.0165x elapsed=0:00:30.23    \nframe=   17 fps=0.6 q=45.2 size=       0KiB time=00:00:00.50 bitrate=   0.7kbits/s speed=0.0162x elapsed=0:00:30.77    \nframe=   17 fps=0.5 q=45.2 size=       0KiB time=00:00:00.50 bitrate=   0.7kbits/s speed=0.016x elapsed=0:00:31.32    \nframe=   18 fps=0.6 q=45.5 size=       0KiB time=00:00:00.53 bitrate=   0.7kbits/s speed=0.0167x elapsed=0:00:31.89    \nframe=   18 fps=0.6 q=45.5 size=       0KiB time=00:00:00.53 bitrate=   0.7kbits/s speed=0.0164x elapsed=0:00:32.50    \nframe=   18 fps=0.5 q=45.5 size=       0KiB time=00:00:00.53 bitrate=   0.7kbits/s speed=0.0161x elapsed=0:00:33.13    \nframe=   18 fps=0.5 q=45.5 size=       0KiB time=00:00:00.53 bitrate=   0.7kbits/s speed=0.0158x elapsed=0:00:33.77    \nframe=   18 fps=0.5 q=45.5 size=       0KiB time=00:00:00.53 bitrate=   0.7kbits/s speed=0.0155x elapsed=0:00:34.40    \nframe=   18 fps=0.5 q=45.5 size=       0KiB time=00:00:00.53 bitrate=   0.7kbits/s speed=0.0153x elapsed=0:00:34.94    \nframe=   18 fps=0.5 q=45.5 size=       0KiB time=00:00:00.53 bitrate=   0.7kbits/s speed=0.015x elapsed=0:00:35.53    \nframe=   18 fps=0.5 q=45.5 size=       0KiB time=00:00:00.53 bitrate=   0.7kbits/s speed=0.0148x elapsed=0:00:36.07    \nframe=   18 fps=0.5 q=45.5 size=       0KiB time=00:00:00.53 bitrate=   0.7kbits/s speed=0.0145x elapsed=0:00:36.65    \nframe=   18 fps=0.5 q=45.5 size=       0KiB time=00:00:00.53 bitrate=   0.7kbits/s speed=0.0143x elapsed=0:00:37.26    \nframe=   18 fps=0.5 q=45.5 size=       0KiB time=00:00:00.53 bitrate=   0.7kbits/s speed=0.0141x elapsed=0:00:37.90    \nframe=   18 fps=0.5 q=45.5 size=       0KiB time=00:00:00.53 bitrate=   0.7kbits/s speed=0.0139x elapsed=0:00:38.50    \nframe=   18 fps=0.5 q=45.5 size=       0KiB time=00:00:00.53 bitrate=   0.7kbits/s speed=0.0137x elapsed=0:00:39.02    \nframe=   18 fps=0.5 q=45.5 size=       0KiB time=00:00:00.53 bitrate=   0.7kbits/s speed=0.0135x elapsed=0:00:39.54    \nframe=   19 fps=0.5 q=39.5 size=       0KiB time=00:00:00.56 bitrate=   0.6kbits/s speed=0.0141x elapsed=0:00:40.06    \nframe=   19 fps=0.5 q=39.5 size=       0KiB time=00:00:00.56 bitrate=   0.6kbits/s speed=0.014x elapsed=0:00:40.60    \nframe=   19 fps=0.5 q=39.5 size=       0KiB time=00:00:00.56 bitrate=   0.6kbits/s speed=0.0138x elapsed=0:00:41.15    \nframe=   20 fps=0.5 q=43.0 size=       0KiB time=00:00:00.60 bitrate=   0.6kbits/s speed=0.0144x elapsed=0:00:41.67    \nframe=   20 fps=0.5 q=43.0 size=       0KiB time=00:00:00.60 bitrate=   0.6kbits/s speed=0.0142x elapsed=0:00:42.23    \nframe=   20 fps=0.5 q=43.0 size=       0KiB time=00:00:00.60 bitrate=   0.6kbits/s speed=0.014x elapsed=0:00:42.76    \nframe=   20 fps=0.5 q=43.0 size=       0KiB time=00:00:00.60 bitrate=   0.6kbits/s speed=0.0139x elapsed=0:00:43.30    \nframe=   20 fps=0.5 q=43.0 size=       0KiB time=00:00:00.60 bitrate=   0.6kbits/s speed=0.0137x elapsed=0:00:43.82    \nframe=   21 fps=0.5 q=45.4 size=       0KiB time=00:00:00.63 bitrate=   0.6kbits/s speed=0.0143x elapsed=0:00:44.34    \nframe=   21 fps=0.5 q=45.4 size=       0KiB time=00:00:00.63 bitrate=   0.6kbits/s speed=0.0141x elapsed=0:00:44.88    \nframe=   22 fps=0.5 q=45.5 size=       0KiB time=00:00:00.66 bitrate=   0.5kbits/s speed=0.0147x elapsed=0:00:45.43    \nframe=   23 fps=0.5 q=39.5 size=       0KiB time=00:00:00.70 bitrate=   0.5kbits/s speed=0.0152x elapsed=0:00:45.94    \nframe=   23 fps=0.5 q=39.5 size=       0KiB time=00:00:00.70 bitrate=   0.5kbits/s speed=0.0151x elapsed=0:00:46.46    \nframe=   24 fps=0.5 q=43.1 size=       0KiB time=00:00:00.73 bitrate=   0.5kbits/s speed=0.0156x elapsed=0:00:46.98    \nframe=   24 fps=0.5 q=43.1 size=       0KiB time=00:00:00.73 bitrate=   0.5kbits/s speed=0.0154x elapsed=0:00:47.51    \nframe=   24 fps=0.5 q=43.1 size=       0KiB time=00:00:00.73 bitrate=   0.5kbits/s speed=0.0153x elapsed=0:00:48.03    \nframe=   25 fps=0.5 q=45.6 size=     256KiB time=00:00:00.76 bitrate=2735.9kbits/s speed=0.0158x elapsed=0:00:48.55    \nframe=   26 fps=0.5 q=45.8 size=     256KiB time=00:00:00.80 bitrate=2621.9kbits/s speed=0.0163x elapsed=0:00:49.07    \nframe=   26 fps=0.5 q=45.8 size=     256KiB time=00:00:00.80 bitrate=2621.9kbits/s speed=0.0161x elapsed=0:00:49.59    \nframe=   26 fps=0.5 q=45.8 size=     256KiB time=00:00:00.80 bitrate=2621.9kbits/s speed=0.016x elapsed=0:00:50.11    \nframe=   27 fps=0.5 q=39.6 size=     256KiB time=00:00:00.83 bitrate=2517.0kbits/s speed=0.0165x elapsed=0:00:50.63    \nframe=   28 fps=0.5 q=43.0 size=     256KiB time=00:00:00.86 bitrate=2420.2kbits/s speed=0.0169x elapsed=0:00:51.17    \nframe=   28 fps=0.5 q=43.0 size=     256KiB time=00:00:00.86 bitrate=2420.2kbits/s speed=0.0168x elapsed=0:00:51.69    \nframe=   29 fps=0.6 q=45.5 size=     256KiB time=00:00:00.90 bitrate=2330.6kbits/s speed=0.0172x elapsed=0:00:52.21    \nframe=   29 fps=0.5 q=45.5 size=     256KiB time=00:00:00.90 bitrate=2330.6kbits/s speed=0.0171x elapsed=0:00:52.73    \nframe=   29 fps=0.5 q=45.5 size=     256KiB time=00:00:00.90 bitrate=2330.6kbits/s speed=0.0169x elapsed=0:00:53.25    \nframe=   30 fps=0.6 q=45.6 size=     256KiB time=00:00:00.93 bitrate=2247.3kbits/s speed=0.0174x elapsed=0:00:53.78    \nframe=   32 fps=0.6 q=43.2 size=     256KiB time=00:00:01.00 bitrate=2097.5kbits/s speed=0.0184x elapsed=0:00:54.30    \nframe=   32 fps=0.6 q=43.2 size=     256KiB time=00:00:01.00 bitrate=2097.5kbits/s speed=0.0182x elapsed=0:00:54.82    \nframe=   32 fps=0.6 q=43.2 size=     256KiB time=00:00:01.00 bitrate=2097.5kbits/s speed=0.0181x elapsed=0:00:55.38    \nframe=   32 fps=0.6 q=43.2 size=     256KiB time=00:00:01.00 bitrate=2097.5kbits/s speed=0.0179x elapsed=0:00:55.95    \nframe=   32 fps=0.6 q=43.2 size=     256KiB time=00:00:01.00 bitrate=2097.5kbits/s speed=0.0177x elapsed=0:00:56.46    \nframe=   33 fps=0.6 q=45.6 size=     256KiB time=00:00:01.03 bitrate=2029.8kbits/s speed=0.0181x elapsed=0:00:56.97    \nframe=   33 fps=0.6 q=45.6 size=     256KiB time=00:00:01.03 bitrate=2029.8kbits/s speed=0.018x elapsed=0:00:57.50    \nframe=   33 fps=0.6 q=45.6 size=     256KiB time=00:00:01.03 bitrate=2029.8kbits/s speed=0.0178x elapsed=0:00:58.02    \nframe=   34 fps=0.6 q=45.6 size=     256KiB time=00:00:01.06 bitrate=1966.4kbits/s speed=0.0182x elapsed=0:00:58.55    \nframe=   34 fps=0.6 q=45.6 size=     256KiB time=00:00:01.06 bitrate=1966.4kbits/s speed=0.018x elapsed=0:00:59.10    \nframe=   34 fps=0.6 q=45.6 size=     256KiB time=00:00:01.06 bitrate=1966.4kbits/s speed=0.0179x elapsed=0:00:59.61    \nframe=   35 fps=0.6 q=39.5 size=     256KiB time=00:00:01.10 bitrate=1906.8kbits/s speed=0.0183x elapsed=0:01:00.16    \nframe=   35 fps=0.6 q=39.5 size=     256KiB time=00:00:01.10 bitrate=1906.8kbits/s speed=0.0181x elapsed=0:01:00.73    \nframe=   36 fps=0.6 q=43.0 size=     256KiB time=00:00:01.13 bitrate=1850.7kbits/s speed=0.0185x elapsed=0:01:01.29    \nframe=   36 fps=0.6 q=43.0 size=     256KiB time=00:00:01.13 bitrate=1850.7kbits/s speed=0.0183x elapsed=0:01:01.81    \nframe=   36 fps=0.6 q=43.0 size=     256KiB time=00:00:01.13 bitrate=1850.7kbits/s speed=0.0182x elapsed=0:01:02.33    \nframe=   37 fps=0.6 q=45.6 size=     256KiB time=00:00:01.16 bitrate=1797.9kbits/s speed=0.0186x elapsed=0:01:02.85    \nframe=   37 fps=0.6 q=45.6 size=     256KiB time=00:00:01.16 bitrate=1797.9kbits/s speed=0.0184x elapsed=0:01:03.38    \nframe=   37 fps=0.6 q=45.6 size=     256KiB time=00:00:01.16 bitrate=1797.9kbits/s speed=0.0183x elapsed=0:01:03.91    \nframe=   38 fps=0.6 q=45.6 size=     256KiB time=00:00:01.20 bitrate=1747.9kbits/s speed=0.0186x elapsed=0:01:04.50    \nframe=   39 fps=0.6 q=39.6 size=     256KiB time=00:00:01.23 bitrate=1700.7kbits/s speed=0.019x elapsed=0:01:05.05    \nframe=   40 fps=0.6 q=43.0 size=     256KiB time=00:00:01.26 bitrate=1655.9kbits/s speed=0.0193x elapsed=0:01:05.61    \nframe=   40 fps=0.6 q=43.0 size=     256KiB time=00:00:01.26 bitrate=1655.9kbits/s speed=0.0191x elapsed=0:01:06.22    \nframe=   40 fps=0.6 q=43.0 size=     256KiB time=00:00:01.26 bitrate=1655.9kbits/s speed=0.0189x elapsed=0:01:06.87    \nframe=   40 fps=0.6 q=43.0 size=     256KiB time=00:00:01.26 bitrate=1655.9kbits/s speed=0.0188x elapsed=0:01:07.51    \nframe=   40 fps=0.6 q=43.0 size=     256KiB time=00:00:01.26 bitrate=1655.9kbits/s speed=0.0186x elapsed=0:01:08.18    \nframe=   40 fps=0.6 q=43.0 size=     256KiB time=00:00:01.26 bitrate=1655.9kbits/s speed=0.0184x elapsed=0:01:08.74    \nframe=   40 fps=0.6 q=43.0 size=     256KiB time=00:00:01.26 bitrate=1655.9kbits/s speed=0.0183x elapsed=0:01:09.31    \nframe=   40 fps=0.6 q=43.0 size=     256KiB time=00:00:01.26 bitrate=1655.9kbits/s speed=0.0181x elapsed=0:01:09.86    \nframe=   40 fps=0.6 q=43.0 size=     256KiB time=00:00:01.26 bitrate=1655.9kbits/s speed=0.018x elapsed=0:01:10.41    \nframe=   40 fps=0.6 q=43.0 size=     256KiB time=00:00:01.26 bitrate=1655.9kbits/s speed=0.0179x elapsed=0:01:10.95    \nframe=   41 fps=0.6 q=45.7 size=     256KiB time=00:00:01.30 bitrate=1613.5kbits/s speed=0.0182x elapsed=0:01:11.47    \nframe=   41 fps=0.6 q=45.7 size=     256KiB time=00:00:01.30 bitrate=1613.5kbits/s speed=0.0181x elapsed=0:01:12.00    \nframe=   41 fps=0.6 q=45.7 size=     256KiB time=00:00:01.30 bitrate=1613.5kbits/s speed=0.0179x elapsed=0:01:12.58    \nframe=   41 fps=0.6 q=45.7 size=     256KiB time=00:00:01.30 bitrate=1613.5kbits/s speed=0.0178x elapsed=0:01:13.10    \nframe=   41 fps=0.6 q=45.7 size=     256KiB time=00:00:01.30 bitrate=1613.5kbits/s speed=0.0176x elapsed=0:01:13.73    \nframe=   41 fps=0.6 q=45.7 size=     256KiB time=00:00:01.30 bitrate=1613.5kbits/s speed=0.0175x elapsed=0:01:14.31    \nframe=   41 fps=0.5 q=45.7 size=     256KiB time=00:00:01.30 bitrate=1613.5kbits/s speed=0.0174x elapsed=0:01:14.90    \nframe=   41 fps=0.5 q=45.7 size=     256KiB time=00:00:01.30 bitrate=1613.5kbits/s speed=0.0172x elapsed=0:01:15.44    \nframe=   42 fps=0.6 q=45.6 size=     256KiB time=00:00:01.33 bitrate=1573.1kbits/s speed=0.0175x elapsed=0:01:16.09    \nframe=   42 fps=0.5 q=45.6 size=     256KiB time=00:00:01.33 bitrate=1573.1kbits/s speed=0.0174x elapsed=0:01:16.63    \nframe=   42 fps=0.5 q=45.6 size=     256KiB time=00:00:01.33 bitrate=1573.1kbits/s speed=0.0173x elapsed=0:01:17.24    \nframe=   42 fps=0.5 q=45.6 size=     256KiB time=00:00:01.33 bitrate=1573.1kbits/s speed=0.0171x elapsed=0:01:17.82    \nframe=   42 fps=0.5 q=45.6 size=     256KiB time=00:00:01.33 bitrate=1573.1kbits/s speed=0.017x elapsed=0:01:18.45    \nframe=   42 fps=0.5 q=45.6 size=     256KiB time=00:00:01.33 bitrate=1573.1kbits/s speed=0.0169x elapsed=0:01:19.03    \nframe=   42 fps=0.5 q=45.6 size=     256KiB time=00:00:01.33 bitrate=1573.1kbits/s speed=0.0167x elapsed=0:01:19.63    \nframe=   42 fps=0.5 q=45.6 size=     256KiB time=00:00:01.33 bitrate=1573.1kbits/s speed=0.0166x elapsed=0:01:20.21    \nframe=   42 fps=0.5 q=45.6 size=     256KiB time=00:00:01.33 bitrate=1573.1kbits/s speed=0.0165x elapsed=0:01:20.72    \nframe=   42 fps=0.5 q=45.6 size=     256KiB time=00:00:01.33 bitrate=1573.1kbits/s speed=0.0164x elapsed=0:01:21.31    \nframe=   42 fps=0.5 q=45.6 size=     256KiB time=00:00:01.33 bitrate=1573.1kbits/s speed=0.0163x elapsed=0:01:21.84    \nframe=   42 fps=0.5 q=45.6 size=     256KiB time=00:00:01.33 bitrate=1573.1kbits/s speed=0.0162x elapsed=0:01:22.36    \nframe=   43 fps=0.5 q=39.6 size=     256KiB time=00:00:01.33 bitrate=1573.1kbits/s speed=0.0161x elapsed=0:01:22.89    \nframe=   43 fps=0.5 q=39.6 size=     256KiB time=00:00:01.36 bitrate=1534.8kbits/s speed=0.0164x elapsed=0:01:23.57    \nframe=   43 fps=0.5 q=39.6 size=     256KiB time=00:00:01.36 bitrate=1534.8kbits/s speed=0.0162x elapsed=0:01:24.18    \nframe=   43 fps=0.5 q=39.6 size=     256KiB time=00:00:01.36 bitrate=1534.8kbits/s speed=0.0161x elapsed=0:01:24.76    \nframe=   43 fps=0.5 q=39.6 size=     256KiB time=00:00:01.36 bitrate=1534.8kbits/s speed=0.016x elapsed=0:01:25.37    \nframe=   44 fps=0.5 q=43.1 size=     256KiB time=00:00:01.40 bitrate=1498.2kbits/s speed=0.0163x elapsed=0:01:25.88    \nframe=   45 fps=0.5 q=45.6 size=     256KiB time=00:00:01.43 bitrate=1463.4kbits/s speed=0.0166x elapsed=0:01:26.41    \nframe=   45 fps=0.5 q=45.6 size=     256KiB time=00:00:01.43 bitrate=1463.4kbits/s speed=0.0165x elapsed=0:01:26.95    \nframe=   45 fps=0.5 q=45.6 size=     256KiB time=00:00:01.43 bitrate=1463.4kbits/s speed=0.0164x elapsed=0:01:27.47    \nframe=   45 fps=0.5 q=45.6 size=     256KiB time=00:00:01.43 bitrate=1463.4kbits/s speed=0.0163x elapsed=0:01:28.00    \nframe=   45 fps=0.5 q=45.6 size=     256KiB time=00:00:01.43 bitrate=1463.4kbits/s speed=0.0162x elapsed=0:01:28.54    \nframe=   45 fps=0.5 q=45.6 size=     256KiB time=00:00:01.43 bitrate=1463.4kbits/s speed=0.0161x elapsed=0:01:29.07    \nframe=   46 fps=0.5 q=45.3 size=     256KiB time=00:00:01.46 bitrate=1430.1kbits/s speed=0.0164x elapsed=0:01:29.62    \nframe=   46 fps=0.5 q=45.3 size=     256KiB time=00:00:01.46 bitrate=1430.1kbits/s speed=0.0163x elapsed=0:01:30.17    \nframe=   46 fps=0.5 q=45.3 size=     256KiB time=00:00:01.46 bitrate=1430.1kbits/s speed=0.0161x elapsed=0:01:30.83    \nframe=   46 fps=0.5 q=45.3 size=     256KiB time=00:00:01.46 bitrate=1430.1kbits/s speed=0.016x elapsed=0:01:31.42    \nframe=   46 fps=0.5 q=45.3 size=     256KiB time=00:00:01.46 bitrate=1430.1kbits/s speed=0.0159x elapsed=0:01:31.98    \nframe=   47 fps=0.5 q=39.6 size=     256KiB time=00:00:01.46 bitrate=1430.1kbits/s speed=0.0159x elapsed=0:01:32.51    \nframe=   47 fps=0.5 q=39.6 size=     256KiB time=00:00:01.50 bitrate=1398.3kbits/s speed=0.0161x elapsed=0:01:33.06    \nframe=   48 fps=0.5 q=43.0 size=     256KiB time=00:00:01.53 bitrate=1367.9kbits/s speed=0.0164x elapsed=0:01:33.63    \nframe=   48 fps=0.5 q=43.0 size=     256KiB time=00:00:01.53 bitrate=1367.9kbits/s speed=0.0163x elapsed=0:01:34.21    \nframe=   48 fps=0.5 q=43.0 size=     256KiB time=00:00:01.53 bitrate=1367.9kbits/s speed=0.0162x elapsed=0:01:34.73    \nframe=   48 fps=0.5 q=43.0 size=     256KiB time=00:00:01.53 bitrate=1367.9kbits/s speed=0.0161x elapsed=0:01:35.26    \nframe=   48 fps=0.5 q=43.0 size=     256KiB time=00:00:01.53 bitrate=1367.9kbits/s speed=0.016x elapsed=0:01:35.79    \nframe=   49 fps=0.5 q=45.4 size=     256KiB time=00:00:01.56 bitrate=1338.8kbits/s speed=0.0163x elapsed=0:01:36.32    \nframe=   49 fps=0.5 q=45.4 size=     256KiB time=00:00:01.56 bitrate=1338.8kbits/s speed=0.0162x elapsed=0:01:36.84    \nframe=   49 fps=0.5 q=45.4 size=     256KiB time=00:00:01.56 bitrate=1338.8kbits/s speed=0.0161x elapsed=0:01:37.41    \nframe=   50 fps=0.5 q=45.5 size=     256KiB time=00:00:01.56 bitrate=1338.8kbits/s speed=0.016x elapsed=0:01:37.94    \nframe=   50 fps=0.5 q=45.5 size=     256KiB time=00:00:01.60 bitrate=1310.9kbits/s speed=0.0162x elapsed=0:01:38.56    \nframe=   50 fps=0.5 q=45.5 size=     256KiB time=00:00:01.60 bitrate=1310.9kbits/s speed=0.0161x elapsed=0:01:39.16    \nframe=   50 fps=0.5 q=45.5 size=     256KiB time=00:00:01.60 bitrate=1310.9kbits/s speed=0.016x elapsed=0:01:39.74    \nframe=   50 fps=0.5 q=45.5 size=     256KiB time=00:00:01.60 bitrate=1310.9kbits/s speed=0.0159x elapsed=0:01:40.37    \nframe=   50 fps=0.5 q=45.5 size=     256KiB time=00:00:01.60 bitrate=1310.9kbits/s speed=0.0158x elapsed=0:01:41.02    \nframe=   51 fps=0.5 q=39.6 size=     256KiB time=00:00:01.63 bitrate=1284.2kbits/s speed=0.0161x elapsed=0:01:41.54    \nframe=   51 fps=0.5 q=39.6 size=     256KiB time=00:00:01.63 bitrate=1284.2kbits/s speed=0.016x elapsed=0:01:42.05    \nframe=   51 fps=0.5 q=39.6 size=     256KiB time=00:00:01.63 bitrate=1284.2kbits/s speed=0.0159x elapsed=0:01:42.63    \nframe=   51 fps=0.5 q=39.6 size=     256KiB time=00:00:01.63 bitrate=1284.2kbits/s speed=0.0158x elapsed=0:01:43.16    \nframe=   52 fps=0.5 q=43.1 size=     512KiB time=00:00:01.66 bitrate=2516.8kbits/s speed=0.0161x elapsed=0:01:43.69    \nframe=   52 fps=0.5 q=43.1 size=     512KiB time=00:00:01.66 bitrate=2516.8kbits/s speed=0.016x elapsed=0:01:44.25    \nframe=   52 fps=0.5 q=43.1 size=     512KiB time=00:00:01.66 bitrate=2516.8kbits/s speed=0.0159x elapsed=0:01:44.84    \nframe=   52 fps=0.5 q=43.1 size=     512KiB time=00:00:01.66 bitrate=2516.8kbits/s speed=0.0158x elapsed=0:01:45.38    \nframe=   52 fps=0.5 q=43.1 size=     512KiB time=00:00:01.66 bitrate=2516.8kbits/s speed=0.0157x elapsed=0:01:45.93    \nframe=   52 fps=0.5 q=43.1 size=     512KiB time=00:00:01.66 bitrate=2516.8kbits/s speed=0.0157x elapsed=0:01:46.49    \nframe=   52 fps=0.5 q=43.1 size=     512KiB time=00:00:01.66 bitrate=2516.8kbits/s speed=0.0156x elapsed=0:01:47.03    \nframe=   52 fps=0.5 q=43.1 size=     512KiB time=00:00:01.66 bitrate=2516.8kbits/s speed=0.0155x elapsed=0:01:47.62    \nframe=   53 fps=0.5 q=45.6 size=     512KiB time=00:00:01.70 bitrate=2467.4kbits/s speed=0.0157x elapsed=0:01:48.19    \nframe=   53 fps=0.5 q=45.6 size=     512KiB time=00:00:01.70 bitrate=2467.4kbits/s speed=0.0156x elapsed=0:01:48.76    \nframe=   53 fps=0.5 q=45.6 size=     512KiB time=00:00:01.70 bitrate=2467.4kbits/s speed=0.0156x elapsed=0:01:49.30    \nframe=   53 fps=0.5 q=45.6 size=     512KiB time=00:00:01.70 bitrate=2467.4kbits/s speed=0.0155x elapsed=0:01:49.87    \nframe=   53 fps=0.5 q=45.6 size=     512KiB time=00:00:01.70 bitrate=2467.4kbits/s speed=0.0154x elapsed=0:01:50.44    \nframe=   54 fps=0.5 q=45.6 size=     512KiB time=00:00:01.73 bitrate=2420.0kbits/s speed=0.0156x elapsed=0:01:50.96    \nframe=   54 fps=0.5 q=45.6 size=     512KiB time=00:00:01.73 bitrate=2420.0kbits/s speed=0.0155x elapsed=0:01:51.52    \nframe=   54 fps=0.5 q=45.6 size=     512KiB time=00:00:01.73 bitrate=2420.0kbits/s speed=0.0155x elapsed=0:01:52.07    \nframe=   54 fps=0.5 q=45.6 size=     512KiB time=00:00:01.73 bitrate=2420.0kbits/s speed=0.0154x elapsed=0:01:52.64    \nframe=   54 fps=0.5 q=45.6 size=     512KiB time=00:00:01.73 bitrate=2420.0kbits/s speed=0.0153x elapsed=0:01:53.17    \nframe=   54 fps=0.5 q=45.6 size=     512KiB time=00:00:01.73 bitrate=2420.0kbits/s speed=0.0152x elapsed=0:01:53.69    \nframe=   55 fps=0.5 q=39.5 size=     512KiB time=00:00:01.76 bitrate=2374.3kbits/s speed=0.0155x elapsed=0:01:54.21    \nframe=   55 fps=0.5 q=39.5 size=     512KiB time=00:00:01.76 bitrate=2374.3kbits/s speed=0.0154x elapsed=0:01:54.76    \nframe=   56 fps=0.5 q=43.0 size=     512KiB time=00:00:01.80 bitrate=2330.4kbits/s speed=0.0156x elapsed=0:01:55.32    \nframe=   56 fps=0.5 q=43.0 size=     512KiB time=00:00:01.80 bitrate=2330.4kbits/s speed=0.0155x elapsed=0:01:55.88    \nframe=   56 fps=0.5 q=43.0 size=     512KiB time=00:00:01.80 bitrate=2330.4kbits/s speed=0.0155x elapsed=0:01:56.45    \nframe=   56 fps=0.5 q=43.0 size=     512KiB time=00:00:01.80 bitrate=2330.4kbits/s speed=0.0154x elapsed=0:01:56.98    \nframe=   56 fps=0.5 q=43.0 size=     512KiB time=00:00:01.80 bitrate=2330.4kbits/s speed=0.0153x elapsed=0:01:57.51    \nframe=   56 fps=0.5 q=43.0 size=     512KiB time=00:00:01.80 bitrate=2330.4kbits/s speed=0.0153x elapsed=0:01:58.02    \nframe=   57 fps=0.5 q=45.6 size=     512KiB time=00:00:01.83 bitrate=2288.0kbits/s speed=0.0155x elapsed=0:01:58.55    \nframe=   57 fps=0.5 q=45.6 size=     512KiB time=00:00:01.83 bitrate=2288.0kbits/s speed=0.0154x elapsed=0:01:59.08    \nframe=   57 fps=0.5 q=45.6 size=     512KiB time=00:00:01.83 bitrate=2288.0kbits/s speed=0.0153x elapsed=0:01:59.61    \nframe=   57 fps=0.5 q=45.6 size=     512KiB time=00:00:01.83 bitrate=2288.0kbits/s speed=0.0153x elapsed=0:02:00.16    \nframe=   57 fps=0.5 q=45.6 size=     512KiB time=00:00:01.83 bitrate=2288.0kbits/s speed=0.0152x elapsed=0:02:00.72    \nframe=   57 fps=0.5 q=45.6 size=     512KiB time=00:00:01.83 bitrate=2288.0kbits/s speed=0.0151x elapsed=0:02:01.30    \nframe=   58 fps=0.5 q=45.9 size=     512KiB time=00:00:01.86 bitrate=2247.1kbits/s speed=0.0153x elapsed=0:02:01.84    \nframe=   58 fps=0.5 q=45.9 size=     512KiB time=00:00:01.86 bitrate=2247.1kbits/s speed=0.0153x elapsed=0:02:02.35    \nframe=   58 fps=0.5 q=45.9 size=     512KiB time=00:00:01.86 bitrate=2247.1kbits/s speed=0.0152x elapsed=0:02:02.89    \nframe=   58 fps=0.5 q=45.9 size=     512KiB time=00:00:01.86 bitrate=2247.1kbits/s speed=0.0151x elapsed=0:02:03.41    \nframe=   59 fps=0.5 q=39.6 size=     512KiB time=00:00:01.90 bitrate=2207.7kbits/s speed=0.0153x elapsed=0:02:03.94    \nframe=   60 fps=0.5 q=42.9 size=     512KiB time=00:00:01.93 bitrate=2169.7kbits/s speed=0.0155x elapsed=0:02:04.51    \nframe=   60 fps=0.5 q=42.9 size=     512KiB time=00:00:01.93 bitrate=2169.7kbits/s speed=0.0155x elapsed=0:02:05.06    \nframe=   61 fps=0.5 q=45.7 size=     512KiB time=00:00:01.96 bitrate=2132.9kbits/s speed=0.0157x elapsed=0:02:05.59    \nframe=   62 fps=0.5 q=45.7 size=     512KiB time=00:00:02.00 bitrate=2097.3kbits/s speed=0.0159x elapsed=0:02:06.12    \nframe=   62 fps=0.5 q=45.7 size=     512KiB time=00:00:02.00 bitrate=2097.3kbits/s speed=0.0158x elapsed=0:02:06.67    \nframe=   62 fps=0.5 q=45.7 size=     512KiB time=00:00:02.00 bitrate=2097.3kbits/s speed=0.0157x elapsed=0:02:07.23    \nframe=   62 fps=0.5 q=45.7 size=     512KiB time=00:00:02.00 bitrate=2097.3kbits/s speed=0.0157x elapsed=0:02:07.77    \nframe=   62 fps=0.5 q=45.7 size=     512KiB time=00:00:02.00 bitrate=2097.3kbits/s speed=0.0156x elapsed=0:02:08.34    \nframe=   62 fps=0.5 q=45.7 size=     512KiB time=00:00:02.00 bitrate=2097.3kbits/s speed=0.0155x elapsed=0:02:08.88    \nframe=   62 fps=0.5 q=45.7 size=     512KiB time=00:00:02.00 bitrate=2097.3kbits/s speed=0.0154x elapsed=0:02:09.45    \nframe=   62 fps=0.5 q=45.7 size=     512KiB time=00:00:02.00 bitrate=2097.3kbits/s speed=0.0154x elapsed=0:02:10.03    \nframe=   62 fps=0.5 q=45.7 size=     512KiB time=00:00:02.00 bitrate=2097.3kbits/s speed=0.0153x elapsed=0:02:10.63    \nframe=   62 fps=0.5 q=45.7 size=     512KiB time=00:00:02.00 bitrate=2097.3kbits/s speed=0.0152x elapsed=0:02:11.15    \nframe=   62 fps=0.5 q=45.7 size=     512KiB time=00:00:02.00 bitrate=2097.3kbits/s speed=0.0152x elapsed=0:02:11.67    \nframe=   62 fps=0.5 q=45.7 size=     512KiB time=00:00:02.00 bitrate=2097.3kbits/s speed=0.0151x elapsed=0:02:12.18    \nframe=   62 fps=0.5 q=45.7 size=     512KiB time=00:00:02.00 bitrate=2097.3kbits/s speed=0.0151x elapsed=0:02:12.70    \nframe=   63 fps=0.5 q=39.5 size=     512KiB time=00:00:02.03 bitrate=2062.9kbits/s speed=0.0153x elapsed=0:02:13.21    \nframe=   63 fps=0.5 q=39.5 size=     512KiB time=00:00:02.03 bitrate=2062.9kbits/s speed=0.0152x elapsed=0:02:13.76    \nframe=   63 fps=0.5 q=39.5 size=     512KiB time=00:00:02.03 bitrate=2062.9kbits/s speed=0.0151x elapsed=0:02:14.35    \nframe=   63 fps=0.5 q=39.5 size=     512KiB time=00:00:02.03 bitrate=2062.9kbits/s speed=0.0151x elapsed=0:02:14.86    \nframe=   63 fps=0.5 q=39.5 size=     512KiB time=00:00:02.03 bitrate=2062.9kbits/s speed=0.015x elapsed=0:02:15.38    \nframe=   63 fps=0.5 q=39.5 size=     512KiB time=00:00:02.03 bitrate=2062.9kbits/s speed=0.015x elapsed=0:02:15.93    \nframe=   63 fps=0.5 q=39.5 size=     512KiB time=00:00:02.03 bitrate=2062.9kbits/s speed=0.0149x elapsed=0:02:16.46    \nframe=   64 fps=0.5 q=42.9 size=     512KiB time=00:00:02.06 bitrate=2029.7kbits/s speed=0.0151x elapsed=0:02:17.03    \nframe=   65 fps=0.5 q=45.6 size=     512KiB time=00:00:02.10 bitrate=1997.5kbits/s speed=0.0153x elapsed=0:02:17.60    \nframe=   65 fps=0.5 q=45.6 size=     512KiB time=00:00:02.10 bitrate=1997.5kbits/s speed=0.0152x elapsed=0:02:18.15    \nframe=   65 fps=0.5 q=45.6 size=     512KiB time=00:00:02.10 bitrate=1997.5kbits/s speed=0.0151x elapsed=0:02:18.66    \nframe=   66 fps=0.5 q=45.6 size=     512KiB time=00:00:02.13 bitrate=1966.2kbits/s speed=0.0153x elapsed=0:02:19.20    \nframe=   66 fps=0.5 q=45.6 size=     512KiB time=00:00:02.13 bitrate=1966.2kbits/s speed=0.0153x elapsed=0:02:19.75    \nframe=   66 fps=0.5 q=45.6 size=     512KiB time=00:00:02.13 bitrate=1966.2kbits/s speed=0.0152x elapsed=0:02:20.27    \nframe=   66 fps=0.5 q=45.6 size=     512KiB time=00:00:02.13 bitrate=1966.2kbits/s speed=0.0152x elapsed=0:02:20.80    \nframe=   67 fps=0.5 q=39.5 size=     512KiB time=00:00:02.16 bitrate=1936.0kbits/s speed=0.0153x elapsed=0:02:21.38    \nframe=   67 fps=0.5 q=39.5 size=     512KiB time=00:00:02.16 bitrate=1936.0kbits/s speed=0.0153x elapsed=0:02:21.93    \nframe=   67 fps=0.5 q=39.5 size=     512KiB time=00:00:02.16 bitrate=1936.0kbits/s speed=0.0152x elapsed=0:02:22.59    \nframe=   67 fps=0.5 q=39.5 size=     512KiB time=00:00:02.16 bitrate=1936.0kbits/s speed=0.0151x elapsed=0:02:23.29    \nframe=   67 fps=0.5 q=39.5 size=     512KiB time=00:00:02.16 bitrate=1936.0kbits/s speed=0.015x elapsed=0:02:24.08    \nframe=   67 fps=0.5 q=39.5 size=     512KiB time=00:00:02.16 bitrate=1936.0kbits/s speed=0.015x elapsed=0:02:24.85    \nframe=   67 fps=0.5 q=39.5 size=     512KiB time=00:00:02.16 bitrate=1936.0kbits/s speed=0.0149x elapsed=0:02:25.47    \nframe=   67 fps=0.5 q=39.5 size=     512KiB time=00:00:02.16 bitrate=1936.0kbits/s speed=0.0148x elapsed=0:02:26.02    \nframe=   67 fps=0.5 q=39.5 size=     512KiB time=00:00:02.16 bitrate=1936.0kbits/s speed=0.0148x elapsed=0:02:26.56    \nframe=   67 fps=0.5 q=39.5 size=     512KiB time=00:00:02.16 bitrate=1936.0kbits/s speed=0.0147x elapsed=0:02:27.13    \nframe=   67 fps=0.5 q=39.5 size=     512KiB time=00:00:02.16 bitrate=1936.0kbits/s speed=0.0147x elapsed=0:02:27.69    \nframe=   67 fps=0.5 q=39.5 size=     512KiB time=00:00:02.16 bitrate=1936.0kbits/s speed=0.0146x elapsed=0:02:28.24    \nframe=   67 fps=0.5 q=39.5 size=     512KiB time=00:00:02.16 bitrate=1936.0kbits/s speed=0.0146x elapsed=0:02:28.83    \nframe=   68 fps=0.5 q=42.8 size=     512KiB time=00:00:02.20 bitrate=1906.7kbits/s speed=0.0147x elapsed=0:02:29.37    \nframe=   69 fps=0.5 q=45.3 size=     512KiB time=00:00:02.20 bitrate=1906.7kbits/s speed=0.0147x elapsed=0:02:29.93    \nframe=   69 fps=0.5 q=45.3 size=     512KiB time=00:00:02.23 bitrate=1878.2kbits/s speed=0.0148x elapsed=0:02:30.58    \nframe=   69 fps=0.5 q=45.3 size=     512KiB time=00:00:02.23 bitrate=1878.2kbits/s speed=0.0148x elapsed=0:02:31.20    \nframe=   70 fps=0.5 q=45.6 size=     512KiB time=00:00:02.26 bitrate=1850.6kbits/s speed=0.0149x elapsed=0:02:31.81    \nframe=   70 fps=0.5 q=45.6 size=     512KiB time=00:00:02.26 bitrate=1850.6kbits/s speed=0.0149x elapsed=0:02:32.44    \nframe=   71 fps=0.5 q=39.7 size=     512KiB time=00:00:02.30 bitrate=1823.8kbits/s speed=0.015x elapsed=0:02:32.97    \nframe=   71 fps=0.5 q=39.7 size=     512KiB time=00:00:02.30 bitrate=1823.8kbits/s speed=0.015x elapsed=0:02:33.56    \nframe=   71 fps=0.5 q=39.7 size=     512KiB time=00:00:02.30 bitrate=1823.8kbits/s speed=0.0149x elapsed=0:02:34.32    \nframe=   71 fps=0.5 q=39.7 size=     512KiB time=00:00:02.30 bitrate=1823.8kbits/s speed=0.0148x elapsed=0:02:34.92    \nframe=   71 fps=0.5 q=39.7 size=     512KiB time=00:00:02.30 bitrate=1823.8kbits/s speed=0.0148x elapsed=0:02:35.46    \nframe=   72 fps=0.5 q=43.0 size=     512KiB time=00:00:02.33 bitrate=1797.7kbits/s speed=0.0149x elapsed=0:02:36.12    \nframe=   72 fps=0.5 q=43.0 size=     512KiB time=00:00:02.33 bitrate=1797.7kbits/s speed=0.0149x elapsed=0:02:36.79    \nframe=   72 fps=0.5 q=43.0 size=     512KiB time=00:00:02.33 bitrate=1797.7kbits/s speed=0.0148x elapsed=0:02:37.42    \nframe=   72 fps=0.5 q=43.0 size=     512KiB time=00:00:02.33 bitrate=1797.7kbits/s speed=0.0148x elapsed=0:02:37.94    \nframe=   73 fps=0.5 q=45.3 size=     512KiB time=00:00:02.36 bitrate=1772.4kbits/s speed=0.0149x elapsed=0:02:38.47    \nframe=   75 fps=0.5 q=39.7 size=     512KiB time=00:00:02.43 bitrate=1723.8kbits/s speed=0.0153x elapsed=0:02:38.99    \nframe=   75 fps=0.5 q=39.7 size=     512KiB time=00:00:02.43 bitrate=1723.8kbits/s speed=0.0153x elapsed=0:02:39.53    \nframe=   75 fps=0.5 q=39.7 size=     512KiB time=00:00:02.43 bitrate=1723.8kbits/s speed=0.0152x elapsed=0:02:40.10    \nframe=   75 fps=0.5 q=39.7 size=     512KiB time=00:00:02.43 bitrate=1723.8kbits/s speed=0.0151x elapsed=0:02:40.63    \nframe=   75 fps=0.5 q=39.7 size=     512KiB time=00:00:02.43 bitrate=1723.8kbits/s speed=0.0151x elapsed=0:02:41.19    \nframe=   76 fps=0.5 q=43.1 size=     768KiB time=00:00:02.46 bitrate=2550.7kbits/s speed=0.0152x elapsed=0:02:41.78    \nframe=   76 fps=0.5 q=43.1 size=     768KiB time=00:00:02.46 bitrate=2550.7kbits/s speed=0.0152x elapsed=0:02:42.41    \nframe=   76 fps=0.5 q=43.1 size=     768KiB time=00:00:02.46 bitrate=2550.7kbits/s speed=0.0151x elapsed=0:02:42.96    \nframe=   76 fps=0.5 q=43.1 size=     768KiB time=00:00:02.46 bitrate=2550.7kbits/s speed=0.0151x elapsed=0:02:43.50    \nframe=   76 fps=0.5 q=43.1 size=     768KiB time=00:00:02.46 bitrate=2550.7kbits/s speed=0.015x elapsed=0:02:44.08    \nframe=   76 fps=0.5 q=43.1 size=     768KiB time=00:00:02.46 bitrate=2550.7kbits/s speed=0.015x elapsed=0:02:44.65    \nframe=   76 fps=0.5 q=43.1 size=     768KiB time=00:00:02.46 bitrate=2550.7kbits/s speed=0.0149x elapsed=0:02:45.19    \nframe=   76 fps=0.5 q=43.1 size=     768KiB time=00:00:02.46 bitrate=2550.7kbits/s speed=0.0149x elapsed=0:02:45.82    \nframe=   76 fps=0.5 q=43.1 size=     768KiB time=00:00:02.46 bitrate=2550.7kbits/s speed=0.0148x elapsed=0:02:46.36    \nframe=   77 fps=0.5 q=45.7 size=     768KiB time=00:00:02.50 bitrate=2516.7kbits/s speed=0.015x elapsed=0:02:46.96    \nframe=   77 fps=0.5 q=45.7 size=     768KiB time=00:00:02.50 bitrate=2516.7kbits/s speed=0.0149x elapsed=0:02:47.57    \nframe=   78 fps=0.5 q=45.6 size=     768KiB time=00:00:02.53 bitrate=2483.6kbits/s speed=0.0151x elapsed=0:02:48.08    \nframe=   78 fps=0.5 q=45.6 size=     768KiB time=00:00:02.53 bitrate=2483.6kbits/s speed=0.015x elapsed=0:02:48.64    \nframe=   79 fps=0.5 q=39.8 size=     768KiB time=00:00:02.56 bitrate=2451.4kbits/s speed=0.0152x elapsed=0:02:49.18    \nframe=   79 fps=0.5 q=39.8 size=     768KiB time=00:00:02.56 bitrate=2451.4kbits/s speed=0.0151x elapsed=0:02:49.80    \nframe=   79 fps=0.5 q=39.8 size=     768KiB time=00:00:02.56 bitrate=2451.4kbits/s speed=0.0151x elapsed=0:02:50.33    \nframe=   79 fps=0.5 q=39.8 size=     768KiB time=00:00:02.56 bitrate=2451.4kbits/s speed=0.015x elapsed=0:02:50.91    \nframe=   79 fps=0.5 q=39.8 size=     768KiB time=00:00:02.56 bitrate=2451.4kbits/s speed=0.015x elapsed=0:02:51.53    \nframe=   79 fps=0.5 q=39.8 size=     768KiB time=00:00:02.56 bitrate=2451.4kbits/s speed=0.0149x elapsed=0:02:52.16    \nframe=   79 fps=0.5 q=39.8 size=     768KiB time=00:00:02.56 bitrate=2451.4kbits/s speed=0.0149x elapsed=0:02:52.78    \nframe=   79 fps=0.5 q=39.8 size=     768KiB time=00:00:02.56 bitrate=2451.4kbits/s speed=0.0148x elapsed=0:02:53.38    \nframe=   80 fps=0.5 q=42.8 size=     768KiB time=00:00:02.56 bitrate=2451.4kbits/s speed=0.0148x elapsed=0:02:53.97    \nframe=   80 fps=0.5 q=42.8 size=     768KiB time=00:00:02.60 bitrate=2419.9kbits/s speed=0.0149x elapsed=0:02:54.74    \nframe=   80 fps=0.5 q=42.8 size=     768KiB time=00:00:02.60 bitrate=2419.9kbits/s speed=0.0148x elapsed=0:02:55.42    \nframe=   81 fps=0.5 q=45.4 size=     768KiB time=00:00:02.63 bitrate=2389.3kbits/s speed=0.015x elapsed=0:02:56.11    \nframe=   81 fps=0.5 q=45.4 size=     768KiB time=00:00:02.63 bitrate=2389.3kbits/s speed=0.0149x elapsed=0:02:56.73    \nframe=   81 fps=0.5 q=45.4 size=     768KiB time=00:00:02.63 bitrate=2389.3kbits/s speed=0.0149x elapsed=0:02:57.27    \nframe=   81 fps=0.5 q=45.4 size=     768KiB time=00:00:02.63 bitrate=2389.3kbits/s speed=0.0148x elapsed=0:02:57.94    \nframe=   81 fps=0.5 q=45.4 size=     768KiB time=00:00:02.63 bitrate=2389.3kbits/s speed=0.0147x elapsed=0:02:58.71    \nframe=   81 fps=0.5 q=45.4 size=     768KiB time=00:00:02.63 bitrate=2389.3kbits/s speed=0.0147x elapsed=0:02:59.34    \nframe=   81 fps=0.4 q=45.4 size=     768KiB time=00:00:02.63 bitrate=2389.3kbits/s speed=0.0146x elapsed=0:03:00.05    \nframe=   81 fps=0.4 q=45.4 size=     768KiB time=00:00:02.63 bitrate=2389.3kbits/s speed=0.0146x elapsed=0:03:00.59    \nframe=   82 fps=0.5 q=45.4 size=     768KiB time=00:00:02.66 bitrate=2359.4kbits/s speed=0.0147x elapsed=0:03:01.22    \nframe=   82 fps=0.5 q=45.4 size=     768KiB time=00:00:02.66 bitrate=2359.4kbits/s speed=0.0147x elapsed=0:03:01.80    \nframe=   83 fps=0.5 q=39.8 size=     768KiB time=00:00:02.70 bitrate=2330.3kbits/s speed=0.0148x elapsed=0:03:02.32    \nframe=   83 fps=0.5 q=39.8 size=     768KiB time=00:00:02.70 bitrate=2330.3kbits/s speed=0.0148x elapsed=0:03:02.88    \nframe=   83 fps=0.5 q=39.8 size=     768KiB time=00:00:02.70 bitrate=2330.3kbits/s speed=0.0147x elapsed=0:03:03.52    \nframe=   83 fps=0.5 q=39.8 size=     768KiB time=00:00:02.70 bitrate=2330.3kbits/s speed=0.0147x elapsed=0:03:04.04    \nframe=   83 fps=0.4 q=39.8 size=     768KiB time=00:00:02.70 bitrate=2330.3kbits/s speed=0.0146x elapsed=0:03:04.59    \nframe=   84 fps=0.5 q=43.1 size=     768KiB time=00:00:02.73 bitrate=2301.9kbits/s speed=0.0148x elapsed=0:03:05.12    \nframe=   84 fps=0.5 q=43.1 size=     768KiB time=00:00:02.73 bitrate=2301.9kbits/s speed=0.0147x elapsed=0:03:05.69    \nframe=   85 fps=0.5 q=45.4 size=     768KiB time=00:00:02.76 bitrate=2274.1kbits/s speed=0.0149x elapsed=0:03:06.25    \nframe=   85 fps=0.5 q=45.4 size=     768KiB time=00:00:02.76 bitrate=2274.1kbits/s speed=0.0148x elapsed=0:03:06.80    \nframe=   85 fps=0.5 q=45.4 size=     768KiB time=00:00:02.76 bitrate=2274.1kbits/s speed=0.0148x elapsed=0:03:07.34    \nframe=   86 fps=0.5 q=45.5 size=     768KiB time=00:00:02.80 bitrate=2247.1kbits/s speed=0.0149x elapsed=0:03:07.88    \nframe=   87 fps=0.5 q=39.7 size=     768KiB time=00:00:02.83 bitrate=2220.6kbits/s speed=0.015x elapsed=0:03:08.41    \nframe=   87 fps=0.5 q=39.7 size=     768KiB time=00:00:02.83 bitrate=2220.6kbits/s speed=0.015x elapsed=0:03:08.95    \nframe=   87 fps=0.5 q=39.7 size=     768KiB time=00:00:02.83 bitrate=2220.6kbits/s speed=0.015x elapsed=0:03:09.47    \nframe=   87 fps=0.5 q=39.7 size=     768KiB time=00:00:02.83 bitrate=2220.6kbits/s speed=0.0149x elapsed=0:03:10.00    \nframe=   88 fps=0.5 q=43.2 size=     768KiB time=00:00:02.86 bitrate=2194.8kbits/s speed=0.015x elapsed=0:03:10.52    \nframe=   88 fps=0.5 q=43.2 size=     768KiB time=00:00:02.86 bitrate=2194.8kbits/s speed=0.015x elapsed=0:03:11.07    \nframe=   88 fps=0.5 q=43.2 size=     768KiB time=00:00:02.86 bitrate=2194.8kbits/s speed=0.015x elapsed=0:03:11.61    \nframe=   89 fps=0.5 q=45.6 size=     768KiB time=00:00:02.90 bitrate=2169.6kbits/s speed=0.0151x elapsed=0:03:12.14    \nframe=   89 fps=0.5 q=45.6 size=     768KiB time=00:00:02.90 bitrate=2169.6kbits/s speed=0.0151x elapsed=0:03:12.68    \nframe=   91 fps=0.5 q=39.8 size=     768KiB time=00:00:02.96 bitrate=2120.8kbits/s speed=0.0154x elapsed=0:03:13.19    \nframe=   91 fps=0.5 q=39.8 size=     768KiB time=00:00:02.96 bitrate=2120.8kbits/s speed=0.0153x elapsed=0:03:13.70    \nframe=   92 fps=0.5 q=43.0 size=     768KiB time=00:00:03.00 bitrate=2097.3kbits/s speed=0.0154x elapsed=0:03:14.24    \nframe=   92 fps=0.5 q=43.0 size=     768KiB time=00:00:03.00 bitrate=2097.3kbits/s speed=0.0154x elapsed=0:03:14.80    \nframe=   93 fps=0.5 q=45.1 size=     768KiB time=00:00:03.03 bitrate=2074.2kbits/s speed=0.0155x elapsed=0:03:15.33    \nframe=   93 fps=0.5 q=45.1 size=     768KiB time=00:00:03.03 bitrate=2074.2kbits/s speed=0.0155x elapsed=0:03:15.89    \nframe=   93 fps=0.5 q=45.1 size=     768KiB time=00:00:03.03 bitrate=2074.2kbits/s speed=0.0154x elapsed=0:03:16.43    \nframe=   94 fps=0.5 q=45.2 size=     768KiB time=00:00:03.06 bitrate=2051.7kbits/s speed=0.0156x elapsed=0:03:16.97    \nframe=   94 fps=0.5 q=45.2 size=     768KiB time=00:00:03.06 bitrate=2051.7kbits/s speed=0.0155x elapsed=0:03:17.49    \nframe=   94 fps=0.5 q=45.2 size=     768KiB time=00:00:03.06 bitrate=2051.7kbits/s speed=0.0155x elapsed=0:03:18.02    \nframe=   94 fps=0.5 q=45.2 size=     768KiB time=00:00:03.06 bitrate=2051.7kbits/s speed=0.0154x elapsed=0:03:18.58    \nframe=   94 fps=0.5 q=45.2 size=     768KiB time=00:00:03.06 bitrate=2051.7kbits/s speed=0.0154x elapsed=0:03:19.10    \nframe=   94 fps=0.5 q=45.2 size=     768KiB time=00:00:03.06 bitrate=2051.7kbits/s speed=0.0154x elapsed=0:03:19.68    \nframe=   94 fps=0.5 q=45.2 size=     768KiB time=00:00:03.06 bitrate=2051.7kbits/s speed=0.0153x elapsed=0:03:20.22    \nframe=   95 fps=0.5 q=39.8 size=     768KiB time=00:00:03.10 bitrate=2029.6kbits/s speed=0.0154x elapsed=0:03:20.80    \nframe=   95 fps=0.5 q=39.8 size=     768KiB time=00:00:03.10 bitrate=2029.6kbits/s speed=0.0154x elapsed=0:03:21.35    \nframe=   95 fps=0.5 q=39.8 size=     768KiB time=00:00:03.10 bitrate=2029.6kbits/s speed=0.0153x elapsed=0:03:22.06    \nframe=   95 fps=0.5 q=39.8 size=     768KiB time=00:00:03.10 bitrate=2029.6kbits/s speed=0.0153x elapsed=0:03:22.71    \nframe=   95 fps=0.5 q=39.8 size=     768KiB time=00:00:03.10 bitrate=2029.6kbits/s speed=0.0152x elapsed=0:03:23.53    \nframe=   95 fps=0.5 q=39.8 size=     768KiB time=00:00:03.10 bitrate=2029.6kbits/s speed=0.0152x elapsed=0:03:24.33    \nframe=   95 fps=0.5 q=39.8 size=     768KiB time=00:00:03.10 bitrate=2029.6kbits/s speed=0.0151x elapsed=0:03:24.86    \nframe=   95 fps=0.5 q=39.8 size=     768KiB time=00:00:03.10 bitrate=2029.6kbits/s speed=0.0151x elapsed=0:03:25.42    \nframe=   95 fps=0.5 q=39.8 size=     768KiB time=00:00:03.10 bitrate=2029.6kbits/s speed=0.015x elapsed=0:03:26.04    \nframe=   95 fps=0.5 q=39.8 size=     768KiB time=00:00:03.10 bitrate=2029.6kbits/s speed=0.015x elapsed=0:03:26.66    \nframe=   95 fps=0.5 q=39.8 size=     768KiB time=00:00:03.10 bitrate=2029.6kbits/s speed=0.0149x elapsed=0:03:27.49    \nframe=   96 fps=0.5 q=42.7 size=     768KiB time=00:00:03.13 bitrate=2008.0kbits/s speed=0.0151x elapsed=0:03:28.09    \nframe=   96 fps=0.5 q=42.7 size=     768KiB time=00:00:03.13 bitrate=2008.0kbits/s speed=0.015x elapsed=0:03:28.69    \nframe=   97 fps=0.5 q=45.3 size=     768KiB time=00:00:03.16 bitrate=1986.9kbits/s speed=0.0151x elapsed=0:03:29.33    \nframe=   97 fps=0.5 q=45.3 size=     768KiB time=00:00:03.16 bitrate=1986.9kbits/s speed=0.0151x elapsed=0:03:29.98    \nframe=   98 fps=0.5 q=44.9 size=     768KiB time=00:00:03.20 bitrate=1966.2kbits/s speed=0.0152x elapsed=0:03:30.60    \nframe=   99 fps=0.5 q=39.8 size=     768KiB time=00:00:03.23 bitrate=1945.9kbits/s speed=0.0153x elapsed=0:03:31.15    \nframe=   99 fps=0.5 q=39.8 size=     768KiB time=00:00:03.23 bitrate=1945.9kbits/s speed=0.0153x elapsed=0:03:31.70    \nframe=   99 fps=0.5 q=39.8 size=     768KiB time=00:00:03.23 bitrate=1945.9kbits/s speed=0.0152x elapsed=0:03:32.23    \nframe=   99 fps=0.5 q=39.8 size=     768KiB time=00:00:03.23 bitrate=1945.9kbits/s speed=0.0152x elapsed=0:03:32.94    \nframe=   99 fps=0.5 q=39.8 size=     768KiB time=00:00:03.23 bitrate=1945.9kbits/s speed=0.0151x elapsed=0:03:33.63    \nframe=   99 fps=0.5 q=39.8 size=     768KiB time=00:00:03.23 bitrate=1945.9kbits/s speed=0.0151x elapsed=0:03:34.16    \nframe=   99 fps=0.5 q=39.8 size=     768KiB time=00:00:03.23 bitrate=1945.9kbits/s speed=0.0151x elapsed=0:03:34.71    \nframe=   99 fps=0.5 q=39.8 size=     768KiB time=00:00:03.23 bitrate=1945.9kbits/s speed=0.015x elapsed=0:03:35.29    \nframe=   99 fps=0.5 q=39.8 size=     768KiB time=00:00:03.23 bitrate=1945.9kbits/s speed=0.015x elapsed=0:03:35.93    \nframe=  100 fps=0.5 q=42.9 size=     768KiB time=00:00:03.26 bitrate=1926.1kbits/s speed=0.0151x elapsed=0:03:36.51    \nframe=  100 fps=0.5 q=42.9 size=     768KiB time=00:00:03.26 bitrate=1926.1kbits/s speed=0.015x elapsed=0:03:37.18    \nframe=  100 fps=0.5 q=42.9 size=     768KiB time=00:00:03.26 bitrate=1926.1kbits/s speed=0.015x elapsed=0:03:37.82    \nframe=  100 fps=0.5 q=42.9 size=     768KiB time=00:00:03.26 bitrate=1926.1kbits/s speed=0.015x elapsed=0:03:38.46    \nframe=  100 fps=0.5 q=42.9 size=     768KiB time=00:00:03.26 bitrate=1926.1kbits/s speed=0.0149x elapsed=0:03:39.06    \nframe=  100 fps=0.5 q=42.9 size=     768KiB time=00:00:03.26 bitrate=1926.1kbits/s speed=0.0149x elapsed=0:03:39.61    \nframe=  100 fps=0.5 q=42.9 size=     768KiB time=00:00:03.26 bitrate=1926.1kbits/s speed=0.0148x elapsed=0:03:40.23    \nframe=  100 fps=0.5 q=42.9 size=     768KiB time=00:00:03.26 bitrate=1926.1kbits/s speed=0.0148x elapsed=0:03:40.81    \nframe=  101 fps=0.5 q=45.2 size=    1024KiB time=00:00:03.30 bitrate=2542.1kbits/s speed=0.0149x elapsed=0:03:41.36    \nframe=  101 fps=0.5 q=45.2 size=    1024KiB time=00:00:03.30 bitrate=2542.1kbits/s speed=0.0149x elapsed=0:03:42.04    \nframe=  102 fps=0.5 q=45.5 size=    1024KiB time=00:00:03.33 bitrate=2516.7kbits/s speed=0.015x elapsed=0:03:42.64    \nframe=  102 fps=0.5 q=45.5 size=    1024KiB time=00:00:03.33 bitrate=2516.7kbits/s speed=0.0149x elapsed=0:03:43.30    \nframe=  102 fps=0.5 q=45.5 size=    1024KiB time=00:00:03.33 bitrate=2516.7kbits/s speed=0.0149x elapsed=0:03:43.95    \nframe=  102 fps=0.5 q=45.5 size=    1024KiB time=00:00:03.33 bitrate=2516.7kbits/s speed=0.0148x elapsed=0:03:44.53    \nframe=  102 fps=0.5 q=45.5 size=    1024KiB time=00:00:03.33 bitrate=2516.7kbits/s speed=0.0148x elapsed=0:03:45.12    \nframe=  102 fps=0.5 q=45.5 size=    1024KiB time=00:00:03.33 bitrate=2516.7kbits/s speed=0.0148x elapsed=0:03:45.66    \nframe=  102 fps=0.5 q=45.5 size=    1024KiB time=00:00:03.33 bitrate=2516.7kbits/s speed=0.0147x elapsed=0:03:46.18    \nframe=  102 fps=0.4 q=45.5 size=    1024KiB time=00:00:03.33 bitrate=2516.7kbits/s speed=0.0147x elapsed=0:03:46.70    \nframe=  102 fps=0.4 q=45.5 size=    1024KiB time=00:00:03.33 bitrate=2516.7kbits/s speed=0.0147x elapsed=0:03:47.21    \nframe=  102 fps=0.4 q=45.5 size=    1024KiB time=00:00:03.33 bitrate=2516.7kbits/s speed=0.0146x elapsed=0:03:47.91    \nframe=  102 fps=0.4 q=45.5 size=    1024KiB time=00:00:03.33 bitrate=2516.7kbits/s speed=0.0146x elapsed=0:03:48.56    \nframe=  102 fps=0.4 q=45.5 size=    1024KiB time=00:00:03.33 bitrate=2516.7kbits/s speed=0.0145x elapsed=0:03:49.20    \nframe=  103 fps=0.4 q=39.8 size=    1024KiB time=00:00:03.36 bitrate=2491.8kbits/s speed=0.0147x elapsed=0:03:49.74    \nframe=  103 fps=0.4 q=39.8 size=    1024KiB time=00:00:03.36 bitrate=2491.8kbits/s speed=0.0146x elapsed=0:03:50.26    \nframe=  103 fps=0.4 q=39.8 size=    1024KiB time=00:00:03.36 bitrate=2491.8kbits/s speed=0.0146x elapsed=0:03:50.77    \nframe=  103 fps=0.4 q=39.8 size=    1024KiB time=00:00:03.36 bitrate=2491.8kbits/s speed=0.0146x elapsed=0:03:51.31    \nframe=  104 fps=0.4 q=43.0 size=    1024KiB time=00:00:03.40 bitrate=2467.3kbits/s speed=0.0147x elapsed=0:03:51.91    \nframe=  104 fps=0.4 q=43.0 size=    1024KiB time=00:00:03.40 bitrate=2467.3kbits/s speed=0.0146x elapsed=0:03:52.51    \nframe=  104 fps=0.4 q=43.0 size=    1024KiB time=00:00:03.40 bitrate=2467.3kbits/s speed=0.0146x elapsed=0:03:53.14    \nframe=  104 fps=0.4 q=43.0 size=    1024KiB time=00:00:03.40 bitrate=2467.3kbits/s speed=0.0145x elapsed=0:03:53.70    \nframe=  104 fps=0.4 q=43.0 size=    1024KiB time=00:00:03.40 bitrate=2467.3kbits/s speed=0.0145x elapsed=0:03:54.24    \nframe=  104 fps=0.4 q=43.0 size=    1024KiB time=00:00:03.40 bitrate=2467.3kbits/s speed=0.0145x elapsed=0:03:54.83    \nframe=  104 fps=0.4 q=43.0 size=    1024KiB time=00:00:03.40 bitrate=2467.3kbits/s speed=0.0144x elapsed=0:03:55.54    \nframe=  104 fps=0.4 q=43.0 size=    1024KiB time=00:00:03.40 bitrate=2467.3kbits/s speed=0.0144x elapsed=0:03:56.18    \nframe=  105 fps=0.4 q=45.3 size=    1024KiB time=00:00:03.43 bitrate=2443.4kbits/s speed=0.0145x elapsed=0:03:56.78    \nframe=  105 fps=0.4 q=45.3 size=    1024KiB time=00:00:03.43 bitrate=2443.4kbits/s speed=0.0145x elapsed=0:03:57.39    \nframe=  106 fps=0.4 q=45.6 size=    1024KiB time=00:00:03.46 bitrate=2419.9kbits/s speed=0.0146x elapsed=0:03:57.98    \nframe=  106 fps=0.4 q=45.6 size=    1024KiB time=00:00:03.46 bitrate=2419.9kbits/s speed=0.0145x elapsed=0:03:58.65    \nframe=  106 fps=0.4 q=45.6 size=    1024KiB time=00:00:03.46 bitrate=2419.9kbits/s speed=0.0145x elapsed=0:03:59.28    \nframe=  106 fps=0.4 q=45.6 size=    1024KiB time=00:00:03.46 bitrate=2419.9kbits/s speed=0.0145x elapsed=0:03:59.84    \nframe=  107 fps=0.4 q=39.8 size=    1024KiB time=00:00:03.50 bitrate=2396.8kbits/s speed=0.0146x elapsed=0:04:00.39    \nframe=  107 fps=0.4 q=39.8 size=    1024KiB time=00:00:03.50 bitrate=2396.8kbits/s speed=0.0145x elapsed=0:04:00.92    \nframe=  107 fps=0.4 q=39.8 size=    1024KiB time=00:00:03.50 bitrate=2396.8kbits/s speed=0.0145x elapsed=0:04:01.45    \nframe=  107 fps=0.4 q=39.8 size=    1024KiB time=00:00:03.50 bitrate=2396.8kbits/s speed=0.0145x elapsed=0:04:01.99    \nframe=  107 fps=0.4 q=39.8 size=    1024KiB time=00:00:03.50 bitrate=2396.8kbits/s speed=0.0144x elapsed=0:04:02.56    \nframe=  107 fps=0.4 q=39.8 size=    1024KiB time=00:00:03.50 bitrate=2396.8kbits/s speed=0.0144x elapsed=0:04:03.13    \nframe=  108 fps=0.4 q=43.2 size=    1024KiB time=00:00:03.53 bitrate=2374.2kbits/s speed=0.0145x elapsed=0:04:03.68    \nframe=  108 fps=0.4 q=43.2 size=    1024KiB time=00:00:03.53 bitrate=2374.2kbits/s speed=0.0145x elapsed=0:04:04.21    \nframe=  109 fps=0.4 q=45.5 size=    1024KiB time=00:00:03.56 bitrate=2352.0kbits/s speed=0.0146x elapsed=0:04:04.77    \nframe=  110 fps=0.4 q=45.5 size=    1024KiB time=00:00:03.60 bitrate=2330.3kbits/s speed=0.0147x elapsed=0:04:05.35    \nframe=  110 fps=0.4 q=45.5 size=    1024KiB time=00:00:03.60 bitrate=2330.3kbits/s speed=0.0146x elapsed=0:04:05.90    \nframe=  110 fps=0.4 q=45.5 size=    1024KiB time=00:00:03.60 bitrate=2330.3kbits/s speed=0.0146x elapsed=0:04:06.45    \nframe=  111 fps=0.4 q=39.8 size=    1024KiB time=00:00:03.63 bitrate=2308.9kbits/s speed=0.0147x elapsed=0:04:07.00    \nframe=  111 fps=0.4 q=39.8 size=    1024KiB time=00:00:03.63 bitrate=2308.9kbits/s speed=0.0147x elapsed=0:04:07.57    \nframe=  111 fps=0.4 q=39.8 size=    1024KiB time=00:00:03.63 bitrate=2308.9kbits/s speed=0.0146x elapsed=0:04:08.10    \nframe=  111 fps=0.4 q=39.8 size=    1024KiB time=00:00:03.63 bitrate=2308.9kbits/s speed=0.0146x elapsed=0:04:08.63    \nframe=  112 fps=0.4 q=44.3 size=    1024KiB time=00:00:03.66 bitrate=2287.9kbits/s speed=0.0147x elapsed=0:04:09.24    \nframe=  112 fps=0.4 q=44.3 size=    1024KiB time=00:00:03.66 bitrate=2287.9kbits/s speed=0.0147x elapsed=0:04:09.81    \nframe=  112 fps=0.4 q=44.3 size=    1024KiB time=00:00:03.66 bitrate=2287.9kbits/s speed=0.0146x elapsed=0:04:10.43    \nframe=  112 fps=0.4 q=44.3 size=    1024KiB time=00:00:03.66 bitrate=2287.9kbits/s speed=0.0146x elapsed=0:04:11.19    \nframe=  112 fps=0.4 q=44.3 size=    1024KiB time=00:00:03.66 bitrate=2287.9kbits/s speed=0.0146x elapsed=0:04:11.90    \nframe=  112 fps=0.4 q=44.3 size=    1024KiB time=00:00:03.66 bitrate=2287.9kbits/s speed=0.0145x elapsed=0:04:12.45    \nframe=  112 fps=0.4 q=44.3 size=    1024KiB time=00:00:03.66 bitrate=2287.9kbits/s speed=0.0145x elapsed=0:04:13.28    \nframe=  112 fps=0.4 q=44.3 size=    1024KiB time=00:00:03.66 bitrate=2287.9kbits/s speed=0.0144x elapsed=0:04:13.92    \nframe=  112 fps=0.4 q=44.3 size=    1024KiB time=00:00:03.66 bitrate=2287.9kbits/s speed=0.0144x elapsed=0:04:14.48    \nframe=  112 fps=0.4 q=44.3 size=    1024KiB time=00:00:03.66 bitrate=2287.9kbits/s speed=0.0144x elapsed=0:04:15.06    \nframe=  112 fps=0.4 q=44.3 size=    1024KiB time=00:00:03.66 bitrate=2287.9kbits/s speed=0.0143x elapsed=0:04:15.67    \nframe=  112 fps=0.4 q=44.3 size=    1024KiB time=00:00:03.66 bitrate=2287.9kbits/s speed=0.0143x elapsed=0:04:16.21    \nframe=  112 fps=0.4 q=44.3 size=    1024KiB time=00:00:03.66 bitrate=2287.9kbits/s speed=0.0143x elapsed=0:04:16.76    \nframe=  112 fps=0.4 q=44.3 size=    1024KiB time=00:00:03.66 bitrate=2287.9kbits/s speed=0.0142x elapsed=0:04:17.39    \nframe=  112 fps=0.4 q=44.3 size=    1024KiB time=00:00:03.66 bitrate=2287.9kbits/s speed=0.0142x elapsed=0:04:17.97    \nframe=  114 fps=0.4 q=45.3 size=    1024KiB time=00:00:03.70 bitrate=2267.3kbits/s speed=0.0143x elapsed=0:04:18.52    \nframe=  114 fps=0.4 q=45.3 size=    1024KiB time=00:00:03.73 bitrate=2247.0kbits/s speed=0.0144x elapsed=0:04:19.08    \nframe=  114 fps=0.4 q=45.3 size=    1024KiB time=00:00:03.73 bitrate=2247.0kbits/s speed=0.0144x elapsed=0:04:19.79    \nframe=  114 fps=0.4 q=45.3 size=    1024KiB time=00:00:03.73 bitrate=2247.0kbits/s speed=0.0143x elapsed=0:04:20.47    \nframe=  114 fps=0.4 q=45.3 size=    1024KiB time=00:00:03.73 bitrate=2247.0kbits/s speed=0.0143x elapsed=0:04:21.03    \nframe=  114 fps=0.4 q=45.3 size=    1024KiB time=00:00:03.73 bitrate=2247.0kbits/s speed=0.0143x elapsed=0:04:21.64    \nframe=  114 fps=0.4 q=45.3 size=    1024KiB time=00:00:03.73 bitrate=2247.0kbits/s speed=0.0142x elapsed=0:04:22.26    \nframe=  114 fps=0.4 q=45.3 size=    1024KiB time=00:00:03.73 bitrate=2247.0kbits/s speed=0.0142x elapsed=0:04:22.87    \nframe=  115 fps=0.4 q=45.6 size=    1024KiB time=00:00:03.76 bitrate=2227.2kbits/s speed=0.0143x elapsed=0:04:23.42    \nframe=  115 fps=0.4 q=45.6 size=    1024KiB time=00:00:03.76 bitrate=2227.2kbits/s speed=0.0143x elapsed=0:04:24.00    \nframe=  115 fps=0.4 q=45.6 size=    1024KiB time=00:00:03.76 bitrate=2227.2kbits/s speed=0.0142x elapsed=0:04:24.61    \nframe=  116 fps=0.4 q=39.8 size=    1024KiB time=00:00:03.80 bitrate=2207.6kbits/s speed=0.0143x elapsed=0:04:25.18    \nframe=  116 fps=0.4 q=39.8 size=    1024KiB time=00:00:03.80 bitrate=2207.6kbits/s speed=0.0143x elapsed=0:04:25.70    \nframe=  116 fps=0.4 q=39.8 size=    1024KiB time=00:00:03.80 bitrate=2207.6kbits/s speed=0.0143x elapsed=0:04:26.24    \nframe=  116 fps=0.4 q=39.8 size=    1024KiB time=00:00:03.80 bitrate=2207.6kbits/s speed=0.0142x elapsed=0:04:26.86    \nframe=  116 fps=0.4 q=39.8 size=    1024KiB time=00:00:03.80 bitrate=2207.6kbits/s speed=0.0142x elapsed=0:04:27.47    \nframe=  116 fps=0.4 q=39.8 size=    1024KiB time=00:00:03.80 bitrate=2207.6kbits/s speed=0.0142x elapsed=0:04:27.99    \nframe=  116 fps=0.4 q=39.8 size=    1024KiB time=00:00:03.80 bitrate=2207.6kbits/s speed=0.0142x elapsed=0:04:28.53    \nframe=  116 fps=0.4 q=39.8 size=    1024KiB time=00:00:03.80 bitrate=2207.6kbits/s speed=0.0141x elapsed=0:04:29.13    \nframe=  116 fps=0.4 q=39.8 size=    1024KiB time=00:00:03.80 bitrate=2207.6kbits/s speed=0.0141x elapsed=0:04:29.78    \nframe=  116 fps=0.4 q=39.8 size=    1024KiB time=00:00:03.80 bitrate=2207.6kbits/s speed=0.0141x elapsed=0:04:30.30    \nframe=  117 fps=0.4 q=42.8 size=    1024KiB time=00:00:03.83 bitrate=2188.4kbits/s speed=0.0142x elapsed=0:04:30.88    \nframe=  117 fps=0.4 q=42.8 size=    1024KiB time=00:00:03.83 bitrate=2188.4kbits/s speed=0.0141x elapsed=0:04:31.58    \nframe=  117 fps=0.4 q=42.8 size=    1024KiB time=00:00:03.83 bitrate=2188.4kbits/s speed=0.0141x elapsed=0:04:32.20    \nframe=  118 fps=0.4 q=45.2 size=    1024KiB time=00:00:03.86 bitrate=2169.6kbits/s speed=0.0142x elapsed=0:04:32.75    \nframe=  118 fps=0.4 q=45.2 size=    1024KiB time=00:00:03.86 bitrate=2169.6kbits/s speed=0.0141x elapsed=0:04:33.32    \nframe=  118 fps=0.4 q=45.2 size=    1024KiB time=00:00:03.86 bitrate=2169.6kbits/s speed=0.0141x elapsed=0:04:33.94    \nframe=  118 fps=0.4 q=45.2 size=    1024KiB time=00:00:03.86 bitrate=2169.6kbits/s speed=0.0141x elapsed=0:04:34.52    \nframe=  118 fps=0.4 q=45.2 size=    1024KiB time=00:00:03.86 bitrate=2169.6kbits/s speed=0.0141x elapsed=0:04:35.09    \nframe=  118 fps=0.4 q=45.2 size=    1024KiB time=00:00:03.86 bitrate=2169.6kbits/s speed=0.014x elapsed=0:04:35.70    \nframe=  118 fps=0.4 q=45.2 size=    1024KiB time=00:00:03.86 bitrate=2169.6kbits/s speed=0.014x elapsed=0:04:36.23    \nframe=  119 fps=0.4 q=45.3 size=    1024KiB time=00:00:03.90 bitrate=2151.0kbits/s speed=0.0141x elapsed=0:04:36.79    \nframe=  119 fps=0.4 q=45.3 size=    1024KiB time=00:00:03.90 bitrate=2151.0kbits/s speed=0.0141x elapsed=0:04:37.43    \nframe=  119 fps=0.4 q=45.3 size=    1024KiB time=00:00:03.90 bitrate=2151.0kbits/s speed=0.014x elapsed=0:04:38.10    \nframe=  119 fps=0.4 q=45.3 size=    1024KiB time=00:00:03.90 bitrate=2151.0kbits/s speed=0.014x elapsed=0:04:38.66    \nframe=  120 fps=0.4 q=39.9 size=    1024KiB time=00:00:03.93 bitrate=2132.8kbits/s speed=0.0141x elapsed=0:04:39.18    \nframe=  120 fps=0.4 q=39.9 size=    1024KiB time=00:00:03.93 bitrate=2132.8kbits/s speed=0.0141x elapsed=0:04:39.73    \nframe=  120 fps=0.4 q=39.9 size=    1024KiB time=00:00:03.93 bitrate=2132.8kbits/s speed=0.014x elapsed=0:04:40.36    \nframe=  120 fps=0.4 q=39.9 size=    1024KiB time=00:00:03.93 bitrate=2132.8kbits/s speed=0.014x elapsed=0:04:40.89    \nframe=  120 fps=0.4 q=39.9 size=    1024KiB time=00:00:03.93 bitrate=2132.8kbits/s speed=0.014x elapsed=0:04:41.49    \nframe=  121 fps=0.4 q=42.9 size=    1024KiB time=00:00:03.96 bitrate=2114.9kbits/s speed=0.0141x elapsed=0:04:42.00    \nframe=  122 fps=0.4 q=45.2 size=    1024KiB time=00:00:04.00 bitrate=2097.2kbits/s speed=0.0142x elapsed=0:04:42.52    \nframe=  122 fps=0.4 q=45.2 size=    1024KiB time=00:00:04.00 bitrate=2097.2kbits/s speed=0.0141x elapsed=0:04:43.10    \nframe=  122 fps=0.4 q=45.2 size=    1024KiB time=00:00:04.00 bitrate=2097.2kbits/s speed=0.0141x elapsed=0:04:43.66    \nframe=  123 fps=0.4 q=45.5 size=    1024KiB time=00:00:04.03 bitrate=2079.9kbits/s speed=0.0142x elapsed=0:04:44.24    \nframe=  123 fps=0.4 q=45.5 size=    1024KiB time=00:00:04.03 bitrate=2079.9kbits/s speed=0.0142x elapsed=0:04:44.80    \nframe=  123 fps=0.4 q=45.5 size=    1024KiB time=00:00:04.03 bitrate=2079.9kbits/s speed=0.0141x elapsed=0:04:45.37    \nframe=  123 fps=0.4 q=45.5 size=    1024KiB time=00:00:04.03 bitrate=2079.9kbits/s speed=0.0141x elapsed=0:04:45.95    \nframe=  123 fps=0.4 q=45.5 size=    1024KiB time=00:00:04.03 bitrate=2079.9kbits/s speed=0.0141x elapsed=0:04:46.54    \nframe=  123 fps=0.4 q=45.5 size=    1024KiB time=00:00:04.03 bitrate=2079.9kbits/s speed=0.014x elapsed=0:04:47.11    \nframe=  123 fps=0.4 q=45.5 size=    1024KiB time=00:00:04.03 bitrate=2079.9kbits/s speed=0.014x elapsed=0:04:47.67    \nframe=  124 fps=0.4 q=39.9 size=    1024KiB time=00:00:04.06 bitrate=2062.9kbits/s speed=0.0141x elapsed=0:04:48.26    \nframe=  124 fps=0.4 q=39.9 size=    1024KiB time=00:00:04.06 bitrate=2062.9kbits/s speed=0.0141x elapsed=0:04:48.88    \nframe=  124 fps=0.4 q=39.9 size=    1024KiB time=00:00:04.06 bitrate=2062.9kbits/s speed=0.014x elapsed=0:04:49.51    \nframe=  124 fps=0.4 q=39.9 size=    1024KiB time=00:00:04.06 bitrate=2062.9kbits/s speed=0.014x elapsed=0:04:50.21    \nframe=  124 fps=0.4 q=39.9 size=    1024KiB time=00:00:04.06 bitrate=2062.9kbits/s speed=0.014x elapsed=0:04:50.87    \nframe=  125 fps=0.4 q=42.9 size=    1024KiB time=00:00:04.10 bitrate=2046.1kbits/s speed=0.0141x elapsed=0:04:51.55    \nframe=  125 fps=0.4 q=42.9 size=    1024KiB time=00:00:04.10 bitrate=2046.1kbits/s speed=0.014x elapsed=0:04:52.22    \nframe=  125 fps=0.4 q=42.9 size=    1024KiB time=00:00:04.10 bitrate=2046.1kbits/s speed=0.014x elapsed=0:04:52.90    \nframe=  125 fps=0.4 q=42.9 size=    1024KiB time=00:00:04.10 bitrate=2046.1kbits/s speed=0.014x elapsed=0:04:53.55    \nframe=  125 fps=0.4 q=42.9 size=    1024KiB time=00:00:04.10 bitrate=2046.1kbits/s speed=0.0139x elapsed=0:04:54.14    \nframe=  125 fps=0.4 q=42.9 size=    1024KiB time=00:00:04.10 bitrate=2046.1kbits/s speed=0.0139x elapsed=0:04:54.71    \nframe=  126 fps=0.4 q=45.5 size=    1280KiB time=00:00:04.13 bitrate=2537.0kbits/s speed=0.014x elapsed=0:04:55.27    \nframe=  127 fps=0.4 q=45.5 size=    1280KiB time=00:00:04.16 bitrate=2516.7kbits/s speed=0.0141x elapsed=0:04:55.82    \nframe=  127 fps=0.4 q=45.5 size=    1280KiB time=00:00:04.16 bitrate=2516.7kbits/s speed=0.0141x elapsed=0:04:56.36    \nframe=  127 fps=0.4 q=45.5 size=    1280KiB time=00:00:04.16 bitrate=2516.7kbits/s speed=0.014x elapsed=0:04:56.91    \nframe=  128 fps=0.4 q=39.9 size=    1280KiB time=00:00:04.20 bitrate=2496.7kbits/s speed=0.0141x elapsed=0:04:57.46    \nframe=  128 fps=0.4 q=39.9 size=    1280KiB time=00:00:04.20 bitrate=2496.7kbits/s speed=0.0141x elapsed=0:04:58.04    \nframe=  128 fps=0.4 q=39.9 size=    1280KiB time=00:00:04.20 bitrate=2496.7kbits/s speed=0.0141x elapsed=0:04:58.69    \nframe=  129 fps=0.4 q=42.9 size=    1280KiB time=00:00:04.23 bitrate=2477.0kbits/s speed=0.0141x elapsed=0:04:59.26    \nframe=  129 fps=0.4 q=42.9 size=    1280KiB time=00:00:04.23 bitrate=2477.0kbits/s speed=0.0141x elapsed=0:04:59.78    \nframe=  129 fps=0.4 q=42.9 size=    1280KiB time=00:00:04.23 bitrate=2477.0kbits/s speed=0.0141x elapsed=0:05:00.36    \nframe=  130 fps=0.4 q=45.4 size=    1280KiB time=00:00:04.26 bitrate=2457.7kbits/s speed=0.0142x elapsed=0:05:00.97    \nframe=  130 fps=0.4 q=45.4 size=    1280KiB time=00:00:04.26 bitrate=2457.7kbits/s speed=0.0142x elapsed=0:05:01.49    \nframe=  131 fps=0.4 q=45.1 size=    1280KiB time=00:00:04.30 bitrate=2438.6kbits/s speed=0.0142x elapsed=0:05:02.05    \nframe=  131 fps=0.4 q=45.1 size=    1280KiB time=00:00:04.30 bitrate=2438.6kbits/s speed=0.0142x elapsed=0:05:02.62    \nframe=  132 fps=0.4 q=39.9 size=    1280KiB time=00:00:04.33 bitrate=2419.9kbits/s speed=0.0143x elapsed=0:05:03.19    \nframe=  132 fps=0.4 q=39.9 size=    1280KiB time=00:00:04.33 bitrate=2419.9kbits/s speed=0.0143x elapsed=0:05:03.72    \nframe=  132 fps=0.4 q=39.9 size=    1280KiB time=00:00:04.33 bitrate=2419.9kbits/s speed=0.0142x elapsed=0:05:04.27    \nframe=  132 fps=0.4 q=39.9 size=    1280KiB time=00:00:04.33 bitrate=2419.9kbits/s speed=0.0142x elapsed=0:05:04.80    \nframe=  133 fps=0.4 q=42.9 size=    1280KiB time=00:00:04.36 bitrate=2401.4kbits/s speed=0.0143x elapsed=0:05:05.33    \nframe=  133 fps=0.4 q=42.9 size=    1280KiB time=00:00:04.36 bitrate=2401.4kbits/s speed=0.0143x elapsed=0:05:05.84    \nframe=  133 fps=0.4 q=42.9 size=    1280KiB time=00:00:04.36 bitrate=2401.4kbits/s speed=0.0143x elapsed=0:05:06.36    \nframe=  134 fps=0.4 q=45.3 size=    1280KiB time=00:00:04.40 bitrate=2383.2kbits/s speed=0.0143x elapsed=0:05:06.89    \nframe=  135 fps=0.4 q=45.5 size=    1280KiB time=00:00:04.43 bitrate=2365.3kbits/s speed=0.0144x elapsed=0:05:07.44    \nframe=  135 fps=0.4 q=45.5 size=    1280KiB time=00:00:04.43 bitrate=2365.3kbits/s speed=0.0144x elapsed=0:05:07.96    \nframe=  135 fps=0.4 q=45.5 size=    1280KiB time=00:00:04.43 bitrate=2365.3kbits/s speed=0.0144x elapsed=0:05:08.53    \nframe=  135 fps=0.4 q=45.5 size=    1280KiB time=00:00:04.43 bitrate=2365.3kbits/s speed=0.0143x elapsed=0:05:09.07    \nframe=  136 fps=0.4 q=40.1 size=    1280KiB time=00:00:04.46 bitrate=2347.6kbits/s speed=0.0144x elapsed=0:05:09.64    \nframe=  136 fps=0.4 q=40.1 size=    1280KiB time=00:00:04.46 bitrate=2347.6kbits/s speed=0.0144x elapsed=0:05:10.15    \nframe=  136 fps=0.4 q=40.1 size=    1280KiB time=00:00:04.46 bitrate=2347.6kbits/s speed=0.0144x elapsed=0:05:10.66    \nframe=  136 fps=0.4 q=40.1 size=    1280KiB time=00:00:04.46 bitrate=2347.6kbits/s speed=0.0144x elapsed=0:05:11.23    \nframe=  136 fps=0.4 q=40.1 size=    1280KiB time=00:00:04.46 bitrate=2347.6kbits/s speed=0.0143x elapsed=0:05:11.78    \nframe=  137 fps=0.4 q=44.0 size=    1280KiB time=00:00:04.50 bitrate=2330.2kbits/s speed=0.0144x elapsed=0:05:12.30    \nframe=  137 fps=0.4 q=44.0 size=    1280KiB time=00:00:04.50 bitrate=2330.2kbits/s speed=0.0144x elapsed=0:05:12.85    \nframe=  137 fps=0.4 q=44.0 size=    1280KiB time=00:00:04.50 bitrate=2330.2kbits/s speed=0.0144x elapsed=0:05:13.42    \nframe=  138 fps=0.4 q=45.2 size=    1280KiB time=00:00:04.53 bitrate=2313.1kbits/s speed=0.0144x elapsed=0:05:13.97    \nframe=  138 fps=0.4 q=45.2 size=    1280KiB time=00:00:04.53 bitrate=2313.1kbits/s speed=0.0144x elapsed=0:05:14.53    \nframe=  138 fps=0.4 q=45.2 size=    1280KiB time=00:00:04.53 bitrate=2313.1kbits/s speed=0.0144x elapsed=0:05:15.06    \nframe=  139 fps=0.4 q=45.4 size=    1280KiB time=00:00:04.56 bitrate=2296.2kbits/s speed=0.0145x elapsed=0:05:15.60    \nframe=  140 fps=0.4 q=45.4 size=    1280KiB time=00:00:04.60 bitrate=2279.6kbits/s speed=0.0145x elapsed=0:05:16.18    \nframe=  140 fps=0.4 q=45.4 size=    1280KiB time=00:00:04.60 bitrate=2279.6kbits/s speed=0.0145x elapsed=0:05:16.76    \nframe=  140 fps=0.4 q=45.4 size=    1280KiB time=00:00:04.60 bitrate=2279.6kbits/s speed=0.0145x elapsed=0:05:17.32    \nframe=  140 fps=0.4 q=45.4 size=    1280KiB time=00:00:04.60 bitrate=2279.6kbits/s speed=0.0145x elapsed=0:05:17.83    \nframe=  140 fps=0.4 q=45.4 size=    1280KiB time=00:00:04.60 bitrate=2279.6kbits/s speed=0.0144x elapsed=0:05:18.37    \nframe=  141 fps=0.4 q=40.4 size=    1280KiB time=00:00:04.63 bitrate=2263.2kbits/s speed=0.0145x elapsed=0:05:18.91    \nframe=  141 fps=0.4 q=40.4 size=    1280KiB time=00:00:04.63 bitrate=2263.2kbits/s speed=0.0145x elapsed=0:05:19.46    \nframe=  141 fps=0.4 q=40.4 size=    1280KiB time=00:00:04.63 bitrate=2263.2kbits/s speed=0.0145x elapsed=0:05:19.97    \nframe=  141 fps=0.4 q=40.4 size=    1280KiB time=00:00:04.63 bitrate=2263.2kbits/s speed=0.0145x elapsed=0:05:20.49    \nframe=  141 fps=0.4 q=40.4 size=    1280KiB time=00:00:04.63 bitrate=2263.2kbits/s speed=0.0144x elapsed=0:05:21.00    \nframe=  142 fps=0.4 q=44.1 size=    1280KiB time=00:00:04.66 bitrate=2247.0kbits/s speed=0.0145x elapsed=0:05:21.54    \nframe=  142 fps=0.4 q=44.1 size=    1280KiB time=00:00:04.66 bitrate=2247.0kbits/s speed=0.0145x elapsed=0:05:22.11    \nframe=  142 fps=0.4 q=44.1 size=    1280KiB time=00:00:04.66 bitrate=2247.0kbits/s speed=0.0145x elapsed=0:05:22.68    \nframe=  143 fps=0.4 q=45.0 size=    1280KiB time=00:00:04.70 bitrate=2231.1kbits/s speed=0.0145x elapsed=0:05:23.19    \nframe=  143 fps=0.4 q=45.0 size=    1280KiB time=00:00:04.70 bitrate=2231.1kbits/s speed=0.0145x elapsed=0:05:23.73    \nframe=  144 fps=0.4 q=45.2 size=    1280KiB time=00:00:04.73 bitrate=2215.4kbits/s speed=0.0146x elapsed=0:05:24.27    \nframe=  144 fps=0.4 q=45.2 size=    1280KiB time=00:00:04.73 bitrate=2215.4kbits/s speed=0.0146x elapsed=0:05:24.79    \nframe=  144 fps=0.4 q=45.2 size=    1280KiB time=00:00:04.73 bitrate=2215.4kbits/s speed=0.0145x elapsed=0:05:25.31    \nframe=  145 fps=0.4 q=45.2 size=    1280KiB time=00:00:04.76 bitrate=2199.9kbits/s speed=0.0146x elapsed=0:05:25.84    \nframe=  145 fps=0.4 q=45.2 size=    1280KiB time=00:00:04.76 bitrate=2199.9kbits/s speed=0.0146x elapsed=0:05:26.39    \nframe=  145 fps=0.4 q=45.2 size=    1280KiB time=00:00:04.76 bitrate=2199.9kbits/s speed=0.0146x elapsed=0:05:26.91    \nframe=  145 fps=0.4 q=45.2 size=    1280KiB time=00:00:04.76 bitrate=2199.9kbits/s speed=0.0146x elapsed=0:05:27.43    \nframe=  146 fps=0.4 q=42.6 size=    1280KiB time=00:00:04.80 bitrate=2184.6kbits/s speed=0.0146x elapsed=0:05:28.00    \nframe=  146 fps=0.4 q=42.6 size=    1280KiB time=00:00:04.80 bitrate=2184.6kbits/s speed=0.0146x elapsed=0:05:28.53    \nframe=  146 fps=0.4 q=42.6 size=    1280KiB time=00:00:04.80 bitrate=2184.6kbits/s speed=0.0146x elapsed=0:05:29.10    \nframe=  146 fps=0.4 q=42.6 size=    1280KiB time=00:00:04.80 bitrate=2184.6kbits/s speed=0.0146x elapsed=0:05:29.65    \nframe=  146 fps=0.4 q=42.6 size=    1280KiB time=00:00:04.80 bitrate=2184.6kbits/s speed=0.0145x elapsed=0:05:30.19    \nframe=  146 fps=0.4 q=42.6 size=    1280KiB time=00:00:04.80 bitrate=2184.6kbits/s speed=0.0145x elapsed=0:05:30.77    \nframe=  146 fps=0.4 q=42.6 size=    1280KiB time=00:00:04.80 bitrate=2184.6kbits/s speed=0.0145x elapsed=0:05:31.35    \nframe=  146 fps=0.4 q=42.6 size=    1280KiB time=00:00:04.80 bitrate=2184.6kbits/s speed=0.0145x elapsed=0:05:31.88    \nframe=  147 fps=0.4 q=42.4 size=    1280KiB time=00:00:04.83 bitrate=2169.5kbits/s speed=0.0145x elapsed=0:05:32.44    \nframe=  147 fps=0.4 q=42.4 size=    1280KiB time=00:00:04.83 bitrate=2169.5kbits/s speed=0.0145x elapsed=0:05:33.06    \nframe=  147 fps=0.4 q=42.4 size=    1280KiB time=00:00:04.83 bitrate=2169.5kbits/s speed=0.0145x elapsed=0:05:33.61    \nframe=  147 fps=0.4 q=42.4 size=    1280KiB time=00:00:04.83 bitrate=2169.5kbits/s speed=0.0145x elapsed=0:05:34.13    \n[mp4 @ 0000029622df9740] Starting second pass: moving the moov atom to the beginning of the file\n[out#0/mp4 @ 0000029622deab00] video:1512KiB audio:0KiB subtitle:0KiB other streams:0KiB global headers:2KiB muxing overhead: 0.342144%\nframe=  150 fps=0.4 q=45.4 Lsize=    1517KiB time=00:00:04.93 bitrate=2518.7kbits/s speed=0.0148x elapsed=0:05:34.37    \nx265 [info]: frame I:      1, Avg QP:39.33  kb/s: 12195.84\nx265 [info]: frame P:     36, Avg QP:39.95  kb/s: 6415.01 \nx265 [info]: frame B:    113, Avg QP:44.86  kb/s: 1134.62 \nx265 [info]: Weighted P-Frames: Y:0.0% UV:0.0%\n\nencoded 150 frames in 333.63s (0.45 fps), 2475.66 kb/s, Avg QP:43.64\n",
  "seconds": 334.8733813762665,
  "probe_out": {}
}